<?xml version="1.0" encoding="UTF-8" standalone="no"?>
<svg width="60px" height="59px" viewBox="0 0 60 59" version="1.1" xmlns="http://www.w3.org/2000/svg" xmlns:xlink="http://www.w3.org/1999/xlink">
    <!-- Generator: Sketch 44.1 (41455) - http://www.bohemiancoding.com/sketch -->
    <title>Slice 1</title>
    <desc>Created with Sketch.</desc>
    <defs></defs>
    <g id="Page-1" stroke="none" stroke-width="1" fill="none" fill-rule="evenodd">
        <g id="30---Toy-Robot-(Flat)" fill-rule="nonzero">
            <path d="M18.2593216,9.15773173 L13.1872878,9.15773173 C12.6273353,9.15773173 12.172881,8.70188019 12.172881,8.14020598 C12.172881,7.57853177 12.6273353,7.12268023 13.1872878,7.12268023 L18.2593216,7.12268023 C18.8192741,7.12268023 19.2737283,7.57853177 19.2737283,8.14020598 C19.2737283,8.70188019 18.8192741,9.15773173 18.2593216,9.15773173" id="Fill-12" fill="#BDC3C7"></path>
            <path d="M46.6627107,9.15773173 L41.5906769,9.15773173 C41.0307244,9.15773173 40.5762702,8.70188019 40.5762702,8.14020598 C40.5762702,7.57853177 41.0307244,7.12268023 41.5906769,7.12268023 L46.6627107,7.12268023 C47.2226632,7.12268023 47.6771174,7.57853177 47.6771174,8.14020598 C47.6771174,8.70188019 47.2226632,9.15773173 46.6627107,9.15773173" id="Fill-13" fill="#BDC3C7"></path>
            <path d="M41.0530413,38.6659784 L18.7969571,38.6659784 C17.9397834,38.6659784 17.2449148,37.9689733 17.2449148,37.109164 L17.2449148,20.8898036 C17.2449148,20.0299943 17.9397834,19.3329892 18.7969571,19.3329892 L41.0530413,19.3329892 C41.910215,19.3329892 42.6050837,20.0299943 42.6050837,20.8898036 L42.6050837,37.109164 C42.6050837,37.9689733 41.910215,38.6659784 41.0530413,38.6659784" id="Fill-162" fill="#BDC3C7"></path>
            <polygon id="Fill-163" fill="#95A5A5" points="24.3457621 14.2453605 35.5042364 14.2453605 35.5042364 19.3329892 24.3457621 19.3329892"></polygon>
            <path d="M38.5474566,14.2453605 L21.3025418,14.2453605 L21.3025418,2.66489993 C21.3025418,1.1935577 22.492441,0 23.9592731,0 L35.8907254,0 C37.3575575,0 38.5474566,1.1935577 38.5474566,2.66489993 L38.5474566,14.2453605" id="Fill-164" fill="#D1D4D1"></path>
            <path d="M27.3889824,4.07010299 C27.3889824,4.6317772 26.9345281,5.08762874 26.3745756,5.08762874 C25.8146231,5.08762874 25.3601688,4.6317772 25.3601688,4.07010299 C25.3601688,3.50842878 25.8146231,3.05257724 26.3745756,3.05257724 C26.9345281,3.05257724 27.3889824,3.50842878 27.3889824,4.07010299" id="Fill-165" fill="#FFFFFF"></path>
            <path d="M34.4898296,4.07010299 C34.4898296,4.6317772 34.0353754,5.08762874 33.4754229,5.08762874 C32.9154703,5.08762874 32.4610161,4.6317772 32.4610161,4.07010299 C32.4610161,3.50842878 32.9154703,3.05257724 33.4754229,3.05257724 C34.0353754,3.05257724 34.4898296,3.50842878 34.4898296,4.07010299" id="Fill-166" fill="#FFFFFF"></path>
            <polyline id="Fill-167" fill="#95A5A5" points="21.3025418 12.210309 18.2593216 11.1927832 18.2593216 5.08762874 21.3025418 4.07010299 21.3025418 12.210309"></polyline>
            <polyline id="Fill-168" fill="#95A5A5" points="38.5474566 12.210309 41.5906769 11.1927832 41.5906769 5.08762874 38.5474566 4.07010299 38.5474566 12.210309"></polyline>
            <path d="M4.05762702,40.7010299 L8.11525403,40.7010299 C8.11525403,33.968062 10.5325853,28.4907209 17.2449148,28.4907209 L17.2449148,24.4206179 C8.29581843,24.4206179 4.05762702,31.7244177 4.05762702,40.7010299" id="Fill-169" fill="#798183"></path>
            <path d="M28.4033891,28.4907209 C28.4033891,30.7384353 26.5865866,32.5608239 24.3457621,32.5608239 C22.1049376,32.5608239 20.2881351,30.7384353 20.2881351,28.4907209 C20.2881351,26.2430065 22.1049376,24.4206179 24.3457621,24.4206179 C26.5865866,24.4206179 28.4033891,26.2430065 28.4033891,28.4907209" id="Fill-170" fill="#2960DB"></path>
            <path d="M39.6745753,33.5783497 L33.362711,33.5783497 C32.8649754,33.5783497 32.4610161,33.1224981 32.4610161,32.5608239 C32.4610161,31.9991497 32.8649754,31.5432982 33.362711,31.5432982 L39.6745753,31.5432982 C40.1723108,31.5432982 40.5762702,31.9991497 40.5762702,32.5608239 C40.5762702,33.1224981 40.1723108,33.5783497 39.6745753,33.5783497" id="Fill-171" fill="#14A238"></path>
            <path d="M39.5618634,29.5082467 L33.4754229,29.5082467 C32.9154703,29.5082467 32.4610161,29.0523951 32.4610161,28.4907209 C32.4610161,27.9290467 32.9154703,27.4731952 33.4754229,27.4731952 L39.5618634,27.4731952 C40.1218159,27.4731952 40.5762702,27.9290467 40.5762702,28.4907209 C40.5762702,29.0523951 40.1218159,29.5082467 39.5618634,29.5082467" id="Fill-172" fill="#ECF0F1"></path>
            <path d="M39.5618634,25.4381437 L33.4754229,25.4381437 C32.9154703,25.4381437 32.4610161,24.9822921 32.4610161,24.4206179 C32.4610161,23.8589437 32.9154703,23.4030922 33.4754229,23.4030922 L39.5618634,23.4030922 C40.1218159,23.4030922 40.5762702,23.8589437 40.5762702,24.4206179 C40.5762702,24.9822921 40.1218159,25.4381437 39.5618634,25.4381437" id="Fill-173" fill="#E66B1B"></path>
            <path d="M3.04524907,50.8783224 C2.83323806,50.8783224 2.61919824,50.8121832 2.43660502,50.6748173 C0.888620316,49.5097503 0,47.7280627 0,45.7886586 C0,42.4216659 2.72976857,39.6835041 6.08644052,39.6835041 C9.44311247,39.6835041 12.172881,42.4216659 12.172881,45.7886586 C12.172881,47.7270452 11.2862895,49.5066977 9.73931924,50.6727822 C9.28993705,51.0095832 8.65491842,50.9190234 8.31813538,50.4702946 C7.98236675,50.0205482 8.07264895,49.3825596 8.52000233,49.044741 C9.5526684,48.2683689 10.1440675,47.0809163 10.1440675,45.7886586 C10.1440675,43.5439968 8.32422182,41.7185556 6.08644052,41.7185556 C3.84865922,41.7185556 2.02881351,43.5439968 2.02881351,45.7886586 C2.02881351,47.0819339 2.62122705,48.2693864 3.65490753,49.0467761 C4.10226091,49.3845946 4.19355752,50.0215657 3.85677448,50.4713121 C3.65795075,50.7379039 3.35362873,50.8783224 3.04524907,50.8783224" id="Fill-174" fill="#95A5A5"></path>
            <path d="M55.7923715,40.7010299 L51.7347444,40.7010299 C51.7347444,33.968062 49.3174131,28.4907209 42.6050837,28.4907209 L42.6050837,24.4206179 C51.55418,24.4206179 55.7923715,31.7244177 55.7923715,40.7010299" id="Fill-175" fill="#798183"></path>
            <path d="M56.8057638,50.8783224 C56.4963697,50.8783224 56.1920477,50.7379039 55.993224,50.4713121 C55.656441,50.0215657 55.7477376,49.3845946 56.1961053,49.0467761 C57.2287714,48.2693864 57.821185,47.0819339 57.821185,45.7886586 C57.821185,43.5439968 56.0013393,41.7185556 53.763558,41.7185556 C51.5257767,41.7185556 49.7059309,43.5439968 49.7059309,45.7886586 C49.7059309,47.0809163 50.2983445,48.2683689 51.3299961,49.044741 C51.7773495,49.3825596 51.8676317,50.0205482 51.5318631,50.4702946 C51.1940656,50.9190234 50.5600614,51.0095832 50.1106792,50.6727822 C48.5647233,49.5066977 47.6771174,47.7270452 47.6771174,45.7886586 C47.6771174,42.4216659 50.406886,39.6835041 53.763558,39.6835041 C57.1202299,39.6835041 59.8499985,42.4216659 59.8499985,45.7886586 C59.8499985,47.7280627 58.9623926,49.5097503 57.4133935,50.6748173 C57.2308002,50.8121832 57.0167604,50.8783224 56.8057638,50.8783224" id="Fill-176" fill="#95A5A5"></path>
            <path d="M26.3745756,57.9989676 L17.095797,57.9989676 C16.0580589,57.9989676 15.2161013,57.1554387 15.2161013,56.1134924 L15.2161013,54.7968141 C15.2161013,53.7558852 16.0580589,52.9113389 17.095797,52.9113389 L26.3745756,52.9113389 L26.3745756,57.9989676" id="Fill-177" fill="#95A5A5"></path>
            <path d="M42.7542015,57.9989676 L33.4754229,57.9989676 L33.4754229,52.9113389 L42.7542015,52.9113389 C43.792954,52.9113389 44.6338972,53.7558852 44.6338972,54.7968141 L44.6338972,56.1134924 C44.6338972,57.1554387 43.792954,57.9989676 42.7542015,57.9989676" id="Fill-178" fill="#95A5A5"></path>
            <path d="M29.9249992,12.210309 C27.2378357,12.210309 25.3601688,10.5364791 25.3601688,8.14020598 C25.3601688,7.57853177 25.8146231,7.12268023 26.3745756,7.12268023 C26.9345281,7.12268023 27.3889824,7.57853177 27.3889824,8.14020598 C27.3889824,9.64105646 28.6995959,10.1752575 29.9249992,10.1752575 C31.1504026,10.1752575 32.4610161,9.64105646 32.4610161,8.14020598 C32.4610161,7.57853177 32.9154703,7.12268023 33.4754229,7.12268023 C34.0353754,7.12268023 34.4898296,7.57853177 34.4898296,8.14020598 C34.4898296,10.5364791 32.6121627,12.210309 29.9249992,12.210309" id="Fill-179" fill="#95A5A5"></path>
            <polygon id="Fill-210" fill="#95A5A5" points="16.2305081 42.7360814 22.3169486 42.7360814 22.3169486 47.8237101 16.2305081 47.8237101"></polygon>
            <polygon id="Fill-211" fill="#95A5A5" points="37.5330499 42.7360814 43.6194904 42.7360814 43.6194904 47.8237101 37.5330499 47.8237101"></polygon>
            <polyline id="Fill-212" fill="#D1D4D1" points="37.5330499 47.8237101 37.5330499 42.7360814 40.5762702 42.7360814 40.5762702 38.6659784 33.4754229 38.6659784 33.4754229 52.9113389 40.5762702 52.9113389 40.5762702 47.8237101 37.5330499 47.8237101"></polyline>
            <polyline id="Fill-213" fill="#D1D4D1" points="19.2737283 38.6659784 19.2737283 42.7360814 22.3169486 42.7360814 22.3169486 47.8237101 19.2737283 47.8237101 19.2737283 52.9113389 26.3745756 52.9113389 26.3745756 38.6659784 19.2737283 38.6659784"></polyline>
            <path d="M52.7491512,8.14020598 C52.7491512,9.82624614 51.3868029,11.1927832 49.7059309,11.1927832 C48.0250589,11.1927832 46.6627107,9.82624614 46.6627107,8.14020598 C46.6627107,6.45416581 48.0250589,5.08762874 49.7059309,5.08762874 C51.3868029,5.08762874 52.7491512,6.45416581 52.7491512,8.14020598" id="Fill-214" fill="#798183"></path>
            <path d="M13.1872878,8.14020598 C13.1872878,9.82624614 11.8249395,11.1927832 10.1440675,11.1927832 C8.46319555,11.1927832 7.10084728,9.82624614 7.10084728,8.14020598 C7.10084728,6.45416581 8.46319555,5.08762874 10.1440675,5.08762874 C11.8249395,5.08762874 13.1872878,6.45416581 13.1872878,8.14020598" id="Fill-215" fill="#798183"></path>
        </g>
    </g>
</svg>