<?xml version="1.0" encoding="UTF-8" standalone="no"?>
<svg width="60px" height="60px" viewBox="0 0 60 60" version="1.1" xmlns="http://www.w3.org/2000/svg" xmlns:xlink="http://www.w3.org/1999/xlink" xmlns:sketch="http://www.bohemiancoding.com/sketch/ns">
    <!-- Generator: Sketch 3.2.2 (9983) - http://www.bohemiancoding.com/sketch -->
    <title>72 - Shooting Target (Flat)</title>
    <desc>Created with Sketch.</desc>
    <defs></defs>
    <g id="Page-1" stroke="none" stroke-width="1" fill="none" fill-rule="evenodd" sketch:type="MSPage">
        <g id="72---Shooting-Target-(Flat)" sketch:type="MSLayerGroup">
            <path d="M58,30 C58,45.464 45.464,58 30,58 C14.536,58 2,45.464 2,30 C2,14.536 14.536,2 30,2 C45.464,2 58,14.536 58,30 L58,30 Z" id="Fill-661" fill="#ECF0F1" sketch:type="MSShapeGroup"></path>
            <path d="M58,30 C58,45.464 45.464,58 30,58 C14.536,58 2,45.464 2,30 C2,14.536 14.536,2 30,2 C45.464,2 58,14.536 58,30 L58,30 Z" id="Stroke-662" stroke="#38454F" stroke-width="2" stroke-linecap="round" sketch:type="MSShapeGroup"></path>
            <path d="M30,51 C18.42,51 9,41.579 9,30 C9,18.421 18.42,9 30,9 C41.58,9 51,18.421 51,30 C51,41.579 41.58,51 30,51 L30,51 Z" id="Fill-663" fill="#556080" sketch:type="MSShapeGroup"></path>
            <path d="M30,51 C18.42,51 9,41.579 9,30 C9,18.421 18.42,9 30,9 C41.58,9 51,18.421 51,30 C51,41.579 41.58,51 30,51 L30,51 Z" id="Stroke-664" stroke="#38454F" stroke-width="2" stroke-linecap="round" sketch:type="MSShapeGroup"></path>
            <path d="M30,44 C22.28,44 16,37.72 16,30 C16,22.28 22.28,16 30,16 C37.72,16 44,22.28 44,30 C44,37.72 37.72,44 30,44 L30,44 Z" id="Fill-665" fill="#E64C3C" sketch:type="MSShapeGroup"></path>
            <path d="M30,44 C22.28,44 16,37.72 16,30 C16,22.28 22.28,16 30,16 C37.72,16 44,22.28 44,30 C44,37.72 37.72,44 30,44 L30,44 Z" id="Stroke-666" stroke="#38454F" stroke-width="2" stroke-linecap="round" sketch:type="MSShapeGroup"></path>
            <path d="M30,37 C26.141,37 23,33.859 23,30 C23,26.141 26.141,23 30,23 C33.859,23 37,26.141 37,30 C37,33.859 33.859,37 30,37 L30,37 Z" id="Fill-667" fill="#F3D55B" sketch:type="MSShapeGroup"></path>
            <path d="M30,37 C26.141,37 23,33.859 23,30 C23,26.141 26.141,23 30,23 C33.859,23 37,26.141 37,30 C37,33.859 33.859,37 30,37 L30,37 Z" id="Stroke-668" stroke="#38454F" stroke-width="2" stroke-linecap="round" sketch:type="MSShapeGroup"></path>
            <path d="M30,60 C29.447,60 29,59.552 29,59 L29,1 C29,0.448 29.447,0 30,0 C30.553,0 31,0.448 31,1 L31,59 C31,59.552 30.553,60 30,60" id="Fill-669" fill="#ECF0F1" sketch:type="MSShapeGroup"></path>
            <path d="M59,31 L1,31 C0.447,31 0,30.552 0,30 C0,29.448 0.447,29 1,29 L59,29 C59.553,29 60,29.448 60,30 C60,30.552 59.553,31 59,31" id="Fill-670" fill="#ECF0F1" sketch:type="MSShapeGroup"></path>
        </g>
    </g>
</svg>