<?xml version="1.0" encoding="UTF-8" standalone="no"?>
<svg
   xmlns:dc="http://purl.org/dc/elements/1.1/"
   xmlns:cc="http://creativecommons.org/ns#"
   xmlns:rdf="http://www.w3.org/1999/02/22-rdf-syntax-ns#"
   xmlns:svg="http://www.w3.org/2000/svg"
   xmlns="http://www.w3.org/2000/svg"
   xmlns:xlink="http://www.w3.org/1999/xlink"
   xmlns:sodipodi="http://sodipodi.sourceforge.net/DTD/sodipodi-0.dtd"
   xmlns:inkscape="http://www.inkscape.org/namespaces/inkscape"
   width="328px"
   height="189px"
   viewBox="0 0 328 189"
   version="1.1"
   id="svg2"
   inkscape:version="0.48.4 r9939"
   sodipodi:docname="fits_seamleesly.svg">
  <metadata
     id="metadata71">
    <rdf:RDF>
      <cc:Work
         rdf:about="">
        <dc:format>image/svg+xml</dc:format>
        <dc:type
           rdf:resource="http://purl.org/dc/dcmitype/StillImage" />
      </cc:Work>
    </rdf:RDF>
  </metadata>
  <sodipodi:namedview
     pagecolor="#ffffff"
     bordercolor="#666666"
     borderopacity="1"
     objecttolerance="10"
     gridtolerance="10"
     guidetolerance="10"
     inkscape:pageopacity="0"
     inkscape:pageshadow="2"
     inkscape:window-width="1313"
     inkscape:window-height="744"
     id="namedview69"
     showgrid="false"
     inkscape:zoom="2.2335595"
     inkscape:cx="135.67945"
     inkscape:cy="81.058874"
     inkscape:window-x="53"
     inkscape:window-y="24"
     inkscape:window-maximized="1"
     inkscape:current-layer="Group-4"
     showguides="true"
     inkscape:guide-bbox="true" />
  <!-- Generator: Sketch 3.6.1 (26313) - http://www.bohemiancoding.com/sketch -->
  <title
     id="title4">Group 3</title>
  <desc
     id="desc6">Created with Sketch.</desc>
  <defs
     id="defs8">
    <path
       d="M62.0983063,37.9681389 C63.664362,40.5903047 63.7428001,41.3143121 63.3262671,41.871483 C63.147753,42.113868 62.866458,42.2681131 62.5337726,42.3090352 L62.293049,42.3310702 C61.5816973,42.3310702 59.8831084,41.7518644 51.5551541,35.9188833 C48.1417477,33.5265112 44.8311222,31.0995126 43.405714,30.0449801 L43.3813712,30.0670151 C42.8755811,29.69242 42.3427435,29.3398599 41.7909726,29.0156305 C43.6464376,27.7564873 43.9060945,24.5708549 43.8411803,23.3715209 L43.8384755,23.3368945 L43.8411803,23.2991202 C44.1603419,14.3340203 42.3724959,7.79591909 38.6777945,4.38993663 C36.1461397,2.05737378 33.3981041,1.80869299 32.3324289,1.80869299 C32.0673625,1.80869299 31.915896,1.82443228 31.9131912,1.82443228 L31.7941818,1.83387586 L31.6670581,1.82128442 C31.6670581,1.82128442 31.5155916,1.80869299 31.2532299,1.80869299 C30.1902595,1.80869299 27.4395191,2.05737378 24.9105691,4.38993663 C21.213163,7.79591909 19.4280217,14.3340203 19.7444786,23.2991202 L19.7471833,23.3368945 L19.7444786,23.3715209 C19.6849739,24.5708549 19.9527451,27.7564873 21.7946862,29.0156305 C21.2429153,29.3398599 20.7127825,29.69242 20.2069925,30.0670151 L20.1745353,30.0418322 C18.7518319,31.090069 15.4357968,33.5233633 12.0196857,35.9188833 C3.69443619,41.7518644 1.99584728,42.3310702 1.28449555,42.3310702 L1.0410672,42.3090352 C0.708381795,42.2681131 0.427086816,42.113868 0.248572694,41.871483 C-0.167960257,41.3143121 -0.0895222333,40.5903047 1.47923823,37.9681389 C2.32041841,36.5547506 3.55649346,34.6754794 5.15230152,32.3838387 C7.50814698,28.9935955 9.97218281,25.6694573 10.5861632,24.8510142 L10.588868,24.8226835 C11.5003719,12.5995505 17.64829,7.61019546 21.4106104,5.68685416 C22.0354098,4.74564459 22.7386473,3.91461006 23.5230275,3.19375055 C26.5712914,0.38900899 29.9441264,0.0868146127 31.2532299,0.0868146127 C31.4966583,0.0868146127 31.6805819,0.096258187 31.7941818,0.102553903 C31.9077817,0.096258187 32.0890006,0.0868146127 32.3324289,0.0868146127 C33.6415325,0.0868146127 37.019777,0.38900899 40.0626313,3.19375055 C40.8497163,3.91775791 41.5556585,4.75194031 42.1831627,5.69314988 C45.9454831,7.62593475 52.0744679,12.6184377 52.9886766,24.8226835 L52.9913814,24.8510142 C53.602657,25.6694573 56.0666928,28.9935955 58.425243,32.3838387 C60.0183463,34.6754794 61.2544214,36.5547506 62.0983063,37.9681389 L62.0983063,37.9681389 L62.0983063,37.9681389 Z M61.1029549,40.0236903 C60.5079078,38.8999049 59.2204423,36.7719528 56.4372449,32.7899124 C54.0516471,29.380782 51.6552302,26.1636711 51.2927925,25.6789009 C49.3588895,25.4837337 47.3140914,25.3200451 45.6723024,25.1972786 C45.5397692,26.2360718 45.2341314,27.5298415 44.5579415,28.6599225 C45.8805689,29.6389064 49.0613659,31.9746171 52.3963343,34.3197714 C57.2757203,37.744641 59.8019656,39.3122743 61.1029549,40.0236903 L61.1029549,40.0236903 L61.1029549,40.0236903 Z M45.7750832,23.4785481 C47.2897485,23.591871 49.1587373,23.7398203 50.9736308,23.9161004 C50.1324507,15.7851829 46.8326442,11.3183723 43.843885,8.89766942 C45.3287979,12.6247334 45.9752354,17.447252 45.7696737,23.3243031 L45.7750832,23.4785481 L45.7750832,23.4785481 L45.7750832,23.4785481 Z M19.0250126,28.6567747 C18.3515275,27.5235458 18.0485944,26.2329239 17.9133565,25.1972786 C16.2688627,25.3168972 14.2213599,25.4837337 12.2847521,25.6789009 C11.9223143,26.1636711 9.5258975,29.380782 7.14029969,32.7899124 C4.35439749,36.7719528 3.06693201,38.8999049 2.4745897,40.0236903 C3.77557898,39.3122743 6.30182427,37.744641 11.183915,34.3166235 C14.5242929,31.9683214 17.7077947,29.6294628 19.0250126,28.6567747 L19.0250126,28.6567747 L19.0250126,28.6567747 Z M17.8132804,23.4785481 L17.8186899,23.3243031 C17.6104234,17.4409563 18.2595657,12.6152898 19.7471833,8.88507799 C16.7557194,11.302633 13.4450939,15.7725915 12.6039137,23.9161004 C14.4215121,23.7398203 16.2932056,23.5887231 17.8132804,23.4785481 L17.8132804,23.4785481 L17.8132804,23.4785481 Z"
       id="path-1" />
    <path
       d="M62.0983063,37.9681389 C63.664362,40.5903047 63.7428001,41.3143121 63.3262671,41.871483 C63.147753,42.113868 62.866458,42.2681131 62.5337726,42.3090352 L62.293049,42.3310702 C61.5816973,42.3310702 59.8831084,41.7518644 51.5551541,35.9188833 C48.1417477,33.5265112 44.8311222,31.0995126 43.405714,30.0449801 L43.3813712,30.0670151 C42.8755811,29.69242 42.3427435,29.3398599 41.7909726,29.0156305 C43.6464376,27.7564873 43.9060945,24.5708549 43.8411803,23.3715209 L43.8384755,23.3368945 L43.8411803,23.2991202 C44.1603419,14.3340203 42.3724959,7.79591909 38.6777945,4.38993663 C36.1461397,2.05737378 33.3981041,1.80869299 32.3324289,1.80869299 C32.0673625,1.80869299 31.915896,1.82443228 31.9131912,1.82443228 L31.7941818,1.83387586 L31.6670581,1.82128442 C31.6670581,1.82128442 31.5155916,1.80869299 31.2532299,1.80869299 C30.1902595,1.80869299 27.4395191,2.05737378 24.9105691,4.38993663 C21.213163,7.79591909 19.4280217,14.3340203 19.7444786,23.2991202 L19.7471833,23.3368945 L19.7444786,23.3715209 C19.6849739,24.5708549 19.9527451,27.7564873 21.7946862,29.0156305 C21.2429153,29.3398599 20.7127825,29.69242 20.2069925,30.0670151 L20.1745353,30.0418322 C18.7518319,31.090069 15.4357968,33.5233633 12.0196857,35.9188833 C3.69443619,41.7518644 1.99584728,42.3310702 1.28449555,42.3310702 L1.0410672,42.3090352 C0.708381795,42.2681131 0.427086816,42.113868 0.248572694,41.871483 C-0.167960257,41.3143121 -0.0895222333,40.5903047 1.47923823,37.9681389 C2.32041841,36.5547506 3.55649346,34.6754794 5.15230152,32.3838387 C7.50814698,28.9935955 9.97218281,25.6694573 10.5861632,24.8510142 L10.588868,24.8226835 C11.5003719,12.5995505 17.64829,7.61019546 21.4106104,5.68685416 C22.0354098,4.74564459 22.7386473,3.91461006 23.5230275,3.19375055 C26.5712914,0.38900899 29.9441264,0.0868146127 31.2532299,0.0868146127 C31.4966583,0.0868146127 31.6805819,0.096258187 31.7941818,0.102553903 C31.9077817,0.096258187 32.0890006,0.0868146127 32.3324289,0.0868146127 C33.6415325,0.0868146127 37.019777,0.38900899 40.0626313,3.19375055 C40.8497163,3.91775791 41.5556585,4.75194031 42.1831627,5.69314988 C45.9454831,7.62593475 52.0744679,12.6184377 52.9886766,24.8226835 L52.9913814,24.8510142 C53.602657,25.6694573 56.0666928,28.9935955 58.425243,32.3838387 C60.0183463,34.6754794 61.2544214,36.5547506 62.0983063,37.9681389 L62.0983063,37.9681389 L62.0983063,37.9681389 Z M61.1029549,40.0236903 C60.5079078,38.8999049 59.2204423,36.7719528 56.4372449,32.7899124 C54.0516471,29.380782 51.6552302,26.1636711 51.2927925,25.6789009 C49.3588895,25.4837337 47.3140914,25.3200451 45.6723024,25.1972786 C45.5397692,26.2360718 45.2341314,27.5298415 44.5579415,28.6599225 C45.8805689,29.6389064 49.0613659,31.9746171 52.3963343,34.3197714 C57.2757203,37.744641 59.8019656,39.3122743 61.1029549,40.0236903 L61.1029549,40.0236903 L61.1029549,40.0236903 Z M45.7750832,23.4785481 C47.2897485,23.591871 49.1587373,23.7398203 50.9736308,23.9161004 C50.1324507,15.7851829 46.8326442,11.3183723 43.843885,8.89766942 C45.3287979,12.6247334 45.9752354,17.447252 45.7696737,23.3243031 L45.7750832,23.4785481 L45.7750832,23.4785481 L45.7750832,23.4785481 Z M19.0250126,28.6567747 C18.3515275,27.5235458 18.0485944,26.2329239 17.9133565,25.1972786 C16.2688627,25.3168972 14.2213599,25.4837337 12.2847521,25.6789009 C11.9223143,26.1636711 9.5258975,29.380782 7.14029969,32.7899124 C4.35439749,36.7719528 3.06693201,38.8999049 2.4745897,40.0236903 C3.77557898,39.3122743 6.30182427,37.744641 11.183915,34.3166235 C14.5242929,31.9683214 17.7077947,29.6294628 19.0250126,28.6567747 L19.0250126,28.6567747 L19.0250126,28.6567747 Z M17.8132804,23.4785481 L17.8186899,23.3243031 C17.6104234,17.4409563 18.2595657,12.6152898 19.7471833,8.88507799 C16.7557194,11.302633 13.4450939,15.7725915 12.6039137,23.9161004 C14.4215121,23.7398203 16.2932056,23.5887231 17.8132804,23.4785481 L17.8132804,23.4785481 L17.8132804,23.4785481 Z"
       id="path-3" />
  </defs>
  <g
     id="Page-1"
     stroke="none"
     stroke-width="1"
     fill="none"
     fill-rule="evenodd">
    <g
       id="Group-3"
       transform="matrix(0.96575835,0,0,0.94287979,8.6594415,6.8465808)">
      <g
         id="Group-2"
         transform="translate(0,1.4245162)">
        <path
           d="m 135.07827,112.73865 0,47.06645 -135.07827,0 0,-133.703601 50.15608,0 C 49.647059,24.246671 49.373438,22.27948 49.373438,20.241979 49.373438,9.0626427 57.610768,0 67.77203,0 c 10.161262,0 18.398592,9.0626427 18.398592,20.241979 0,2.037501 -0.273621,4.004692 -0.782643,5.85952 l 49.690291,0 0,47.599132 c 1.55734,-0.471263 3.19734,-0.72297 4.89077,-0.72297 10.16126,0 18.39859,9.062643 18.39859,20.241979 0,11.17934 -8.23733,20.24198 -18.39859,20.24198 -1.69343,0 -3.33343,-0.25171 -4.89077,-0.72297 z"
           id="Oval-1"
           inkscape:connector-curvature="0"
           style="fill:#d8d8d8;fill-opacity:0;stroke:#336e7b;stroke-width:4.19177151;stroke-miterlimit:4;stroke-dasharray:none" />
        <g
           id="deducely_logo_blue"
           transform="translate(32.690903,30.312715)">
          <g
             id="g17"
             transform="matrix(0.93776419,0,0,0.88428844,2.8201668,10.519693)">
            <g
               id="g19">
              <g
                 id="the-logo-white-bg">
                <g
                   id="g22">
                  <path
                     d="m 34.23955,111.43127 0,0 c -1.368609,0 -2.47756,-1.29062 -2.47756,-2.88344 l 0,-36.279066 4.955119,0 0,36.279066 c 0,1.59282 -1.108951,2.88344 -2.477559,2.88344"
                     id="Fill-2"
                     inkscape:connector-curvature="0"
                     style="fill:#0099cc" />
                  <path
                     d="M 60.456783,47.857125 C 60.237697,64.405415 48.534203,77.613827 34.315283,77.358851 20.096363,77.107022 8.7444872,63.483092 8.9635727,46.934802 9.1826582,30.386512 20.886152,17.1781 35.105072,17.429928 49.326698,17.684905 60.675868,31.305687 60.456783,47.857125"
                     id="Fill-3"
                     inkscape:connector-curvature="0"
                     style="fill:#ffffff" />
                  <path
                     d="M 57.576214,47.803611 C 57.381471,62.50096 46.987081,74.233028 34.358559,74.006382 21.730037,73.779736 11.652104,61.682517 11.844141,46.985168 12.038884,32.290966 22.433275,20.558899 35.061796,20.785545 c 12.628522,0.223498 22.70916,12.320717 22.514418,27.018066"
                     id="Fill-12"
                     inkscape:connector-curvature="0"
                     style="fill:#0099cc" />
                  <path
                     d="M 54.552293,47.743802 C 54.387302,60.269129 45.529215,70.263579 34.766978,70.071559 24.007445,69.87954 15.417129,59.570305 15.584824,47.048125 c 0.16499,-12.525327 9.020372,-22.519777 19.78261,-22.327757 10.759533,0.192019 19.349849,10.501254 19.184859,23.023434"
                     id="Fill-13"
                     inkscape:connector-curvature="0"
                     style="fill:#1c8dba" />
                  <path
                     d="M 54.195264,47.743802 C 54.030274,60.269129 45.172187,70.263579 34.409949,70.071559 23.650416,69.87954 15.0601,59.570305 15.225091,47.048125 15.392786,34.522798 24.248168,24.528348 35.010406,24.720368 45.769939,24.912387 54.360255,35.221622 54.195264,47.743802"
                     id="Fill-14"
                     inkscape:connector-curvature="0"
                     style="fill:#ffffff" />
                  <path
                     d="m 35.223451,67.851415 -0.247702,0 0.485191,-36.111794 c 8.72834,0.151719 15.694667,6.776162 15.561879,16.748701 -0.13279,9.879173 -7.183388,18.413344 -15.799368,18.413344"
                     id="Fill-15"
                     inkscape:connector-curvature="0"
                     style="fill:#b3dde5"
                     sodipodi:nodetypes="ccccc" />
                  <path
                     d="m 22.947179,24.204119 22.225008,-0.09129"
                     id="Stroke-16"
                     inkscape:connector-curvature="0"
                     style="stroke:#ffffff;stroke-width:0.75" />
                  <path
                     d="m 4.9605288,43.012571 9.0744682,-14.467556 3.059082,-10.504402 5.939652,-7.93575 1.484913,0 6.935003,-6.3838567 7.25687,0 6.759194,4.8665887 4.003043,3.147858 3.521597,6.30516 3.280873,8.987135 L 65.82032,45.20348 58.279451,39.524744 45.172187,30.827212 35.124006,30.131536 23.409693,32.076912 15.327872,37.667508 4.9605288,43.012571"
                     id="Fill-17"
                     inkscape:connector-curvature="0"
                     style="fill:#1c8dba" />
                  <path
                     d="m 4.9605288,43.012571 9.0744682,-14.467556 3.059082,-10.504402 5.939652,-7.93575 1.484913,0 6.935003,-6.3838567 7.25687,0 6.759194,4.8665887 4.003043,3.147858 3.521597,6.30516 3.280873,8.987135 9.545097,18.175732 -7.54087,-5.678736 -13.107264,-8.697532 -10.048181,0.887238 -11.714313,0.362462 -8.081821,5.590596 -10.3673432,5.345063"
                     id="Fill-18"
                     inkscape:connector-curvature="0"
                     style="fill:#ffffff"
                     sodipodi:nodetypes="cccccccccccccccccc" />
                  <g
                     id="Group-22"
                     transform="translate(0,2.169112)">
                    <g
                       id="mask-2"
                       transform="translate(2.353406,0.766255)"
                       style="fill:#ffffff">
                      <path
                         d="m 62.098306,37.968139 c 1.566056,2.622166 1.644494,3.346173 1.227961,3.903344 -0.178514,0.242385 -0.459809,0.39663 -0.792494,0.437552 l -0.240724,0.02203 c -0.711352,0 -2.409941,-0.579206 -10.737895,-6.412187 -3.413406,-2.392372 -6.724032,-4.81937 -8.14944,-5.873903 l -0.02434,0.02204 c -0.50579,-0.374595 -1.038628,-0.727155 -1.590398,-1.051385 1.855465,-1.259143 2.115122,-4.444775 2.050207,-5.644109 l -0.0027,-0.03463 0.0027,-0.03777 C 44.160342,14.33402 42.372496,7.7959191 38.677794,4.3899366 36.14614,2.0573738 33.398104,1.808693 32.332429,1.808693 c -0.265066,0 -0.416533,0.015739 -0.419238,0.015739 L 31.794182,1.833872 31.667058,1.82128 c 0,0 -0.151466,-0.012591 -0.413828,-0.012591 -1.062971,0 -3.813711,0.2486808 -6.342661,2.5812436 -3.697406,3.4059825 -5.482547,9.9440834 -5.16609,18.9091834 l 0.0027,0.03777 -0.0027,0.03463 c -0.0595,1.199334 0.208266,4.384966 2.050207,5.644109 -0.551771,0.32423 -1.081904,0.67679 -1.587694,1.051385 l -0.03246,-0.02518 c -1.422703,1.048237 -4.738738,3.481531 -8.154849,5.877051 C 3.6944362,41.751864 1.9958473,42.33107 1.2844955,42.33107 L 1.0410672,42.309035 C 0.70838179,42.268113 0.42708682,42.113868 0.24857269,41.871483 -0.16796026,41.314312 -0.08952223,40.590305 1.4792382,37.968139 c 0.8411802,-1.413388 2.0772553,-3.29266 3.6730633,-5.5843 2.3558455,-3.390243 4.8198813,-6.714382 5.4338615,-7.532825 l 0.0027,-0.02833 C 11.500372,12.59955 17.64829,7.6101955 21.41061,5.6868542 c 0.6248,-0.9412096 1.328037,-1.7722441 2.112418,-2.4931037 3.048263,-2.80474151 6.421098,-3.10693589 7.730202,-3.10693589 0.243428,0 0.427352,0.0094436 0.540952,0.01573929 0.1136,-0.0062957 0.294819,-0.01573929 0.538247,-0.01573929 1.309103,0 4.687348,0.30219438 7.730202,3.10693589 0.787085,0.7240074 1.493027,1.5581898 2.120532,2.4993994 3.76232,1.9327848 9.891305,6.9252881 10.805514,19.1295331 l 0.0027,0.02833 c 0.611276,0.818443 3.075312,4.142582 5.433862,7.532825 1.593103,2.29164 2.829178,4.170912 3.673063,5.5843 l 0,0 0,0 z m -0.995351,2.055551 c -0.595047,-1.123785 -1.882513,-3.251737 -4.66571,-7.233778 -2.385598,-3.40913 -4.782015,-6.626241 -5.144453,-7.111011 -1.933903,-0.195167 -3.978701,-0.358856 -5.62049,-0.481622 -0.132533,1.038793 -0.438171,2.332562 -1.114361,3.462643 1.322628,0.978984 4.503425,3.314695 7.838393,5.659849 4.879386,3.42487 7.405632,4.992503 8.706621,5.703919 l 0,0 0,0 z M 45.775083,23.478548 c 1.514666,0.113323 3.383654,0.261272 5.198548,0.437552 -0.84118,-8.130917 -4.140987,-12.597728 -7.129746,-15.0184306 1.484913,3.7270636 2.13135,8.5495826 1.925789,14.4266336 l 0.0054,0.154245 0,0 0,0 z m -26.75007,5.178227 c -0.673486,-1.133229 -0.976419,-2.423851 -1.111657,-3.459496 -1.644493,0.119618 -3.691996,0.286455 -5.628604,0.481622 -0.362438,0.48477 -2.7588545,3.701881 -5.1444523,7.111011 -2.7859022,3.982041 -4.0733677,6.109993 -4.66571,7.233778 1.3009893,-0.711416 3.8272346,-2.279049 8.7093253,-5.707067 3.340378,-2.348302 6.52388,-4.68716 7.841098,-5.659848 l 0,0 0,0 z m -1.211733,-5.178227 0.0054,-0.154245 c -0.208267,-5.883347 0.440876,-10.709013 1.928493,-14.439225 -2.991464,2.417555 -6.302089,6.887514 -7.143269,15.031022 1.817598,-0.17628 3.689292,-0.327377 5.209366,-0.437552 l 0,0 0,0 z"
                         id="path35"
                         inkscape:connector-curvature="0" />
                    </g>
                    <g
                       id="Clip-20" />
                    <g
                       id="Fill-19-Clipped"
                       transform="translate(2.353406,0.766255)">
                      <mask
                         id="mask39"
                         fill="white">
                        <use
                           xlink:href="#path-1"
                           id="use41"
                           x="0"
                           y="0"
                           width="328"
                           height="189" />
                      </mask>
                      <g
                         id="g43" />
                    </g>
                    <g
                       id="Stroke-21-Clipped"
                       transform="translate(2.353406,0.766255)">
                      <mask
                         id="mask-4"
                         fill="white">
                        <use
                           xlink:href="#path-3"
                           id="use48"
                           x="0"
                           y="0"
                           width="328"
                           height="189" />
                      </mask>
                      <g
                         id="g50" />
                      <path
                         d="m -1.6339399,43.816859 66.8427199,0 0,-45.2189813 -66.8427199,0 0,45.2189813 0,0 z"
                         id="Stroke-21"
                         mask="url(#mask-4)"
                         inkscape:connector-curvature="0"
                         style="stroke:#1c8dba;stroke-width:0.2" />
                    </g>
                  </g>
                  <path
                     d="m 64.451712,40.903506 c 1.566056,2.622166 1.644494,3.346173 1.227961,3.903344 -0.178514,0.242385 -0.459809,0.39663 -0.792494,0.437553 l -0.240724,0.02203 c -0.711352,0 -2.409941,-0.579205 -10.737895,-6.412186 -3.413406,-2.392373 -6.724032,-4.819371 -8.14944,-5.873904 l -0.02434,0.02203 c -0.50579,-0.374595 -1.038628,-0.727155 -1.590398,-1.051384 1.855464,-1.259143 2.115121,-4.444776 2.050207,-5.64411 l -0.0027,-0.03463 0.0027,-0.03777 C 46.513748,17.269388 44.725902,10.731286 41.0312,7.3253039 38.499546,4.992741 35.75151,4.7409124 34.685835,4.7409124 c -0.265067,0 -0.416533,0.018887 -0.419238,0.018887 l -0.119009,0.00944 -0.127124,-0.012591 c 0,0 -0.151467,-0.015739 -0.413828,-0.015739 -1.062971,0 -3.813711,0.2518286 -6.342661,2.5843915 -3.697406,3.4059821 -5.482547,9.9440841 -5.166091,18.9091831 l 0.0027,0.03777 -0.0027,0.03463 c -0.0595,1.199334 0.208267,4.384967 2.050208,5.64411 -0.551771,0.324229 -1.081904,0.676789 -1.587694,1.051384 l -0.03246,-0.02518 C 21.105235,34.025435 17.7892,36.45873 14.373089,38.85425 6.0478421,44.687232 4.3492532,45.266437 3.6379014,45.266437 L 3.3944731,45.244403 C 3.0617877,45.20348 2.7804927,45.049235 2.6019786,44.80685 c -0.416533,-0.557171 -0.338095,-1.281178 1.2306655,-3.903344 0.8411802,-1.413388 2.0772552,-3.292659 3.6730633,-5.5843 2.3558454,-3.390243 4.8198816,-6.714381 5.4338616,-7.532824 l 0.0027,-0.02833 c 0.911504,-12.223133 7.059422,-17.212488 10.821742,-19.1358296 0.6248,-0.9412096 1.328037,-1.7722441 2.112417,-2.4931036 3.048264,-2.8047416 6.421099,-3.106936 7.730203,-3.106936 0.243428,0 0.427352,0.00944 0.540952,0.015739 0.1136,-0.0063 0.294818,-0.015739 0.538247,-0.015739 1.309103,0 4.687348,0.3021944 7.730202,3.106936 0.787085,0.7240074 1.493027,1.5581897 2.120532,2.4993993 3.76232,1.9327849 9.891305,6.9252879 10.805513,19.1295339 l 0.0027,0.02833 c 0.611276,0.818443 3.075312,4.142581 5.433862,7.532824 1.593103,2.291641 2.829178,4.170912 3.673063,5.5843 m -0.995351,2.055551 c -0.595047,-1.123785 -1.882513,-3.251737 -4.66571,-7.233777 -2.385598,-3.409131 -4.782015,-6.626242 -5.144453,-7.111012 -1.933903,-0.195167 -3.978701,-0.358856 -5.62049,-0.481622 -0.132533,1.038793 -0.438171,2.332563 -1.114361,3.462644 1.322628,0.978984 4.503425,3.314694 7.838393,5.659849 4.879386,3.424869 7.405631,4.992503 8.706621,5.703918 M 48.128489,26.413915 c 1.514665,0.113323 3.383654,0.261273 5.198548,0.437553 -0.292495,-2.827278 -0.882259,-5.211533 -1.652849,-7.22079 -1.445536,-3.769129 -3.527387,-6.218664 -5.476897,-7.797641 1.484913,3.727064 2.13135,8.549582 1.925789,14.426633 l 0.0054,0.154245 m -26.75007,5.178227 c -0.673477,-1.133229 -0.97641,-2.423851 -1.111648,-3.459496 -1.644493,0.119618 -3.691996,0.286455 -5.628604,0.481622 -0.362438,0.48477 -2.758855,3.701881 -5.1444524,7.111012 -2.7859022,3.98204 -4.0733677,6.109992 -4.66571,7.233777 1.3009892,-0.711415 3.8272345,-2.279049 8.7093254,-5.707066 3.340378,-2.348302 6.52388,-4.687161 7.841098,-5.659849 m -1.211733,-5.178227 0.0054,-0.154245 C 19.963829,20.376324 20.612971,15.550657 22.100589,11.820445 19.109125,14.238 15.7985,18.707959 14.95732,26.851468 c 1.817598,-0.17628 3.689291,-0.327378 5.209366,-0.437553"
                     id="Stroke-23"
                     style="fill:#0099cc;fill-opacity:1;stroke:#0099cc;stroke-width:0.89999998;stroke-miterlimit:4;stroke-dasharray:none"
                     inkscape:connector-curvature="0"
                     sodipodi:nodetypes="ccccccccccccscccscccccccccccccccccscscccccccccccccccsccccccccccccccc" />
                  <path
                     d="m 22.100589,30.808325 24.110226,0"
                     id="Fill-24"
                     inkscape:connector-curvature="0"
                     style="fill:#ffffff" />
                  <path
                     d="m 22.100589,30.808325 c 10.049821,2.013079 17.407525,1.334041 24.110226,0"
                     id="Stroke-25"
                     inkscape:connector-curvature="0"
                     style="stroke:#1c8dba;stroke-width:0.80000001"
                     sodipodi:nodetypes="cc" />
                  <path
                     d="m 36.31951,2.4933417 c 0,1.0293496 -1.046742,1.8603841 -2.339617,1.8603841 -1.290171,0 -2.336913,-0.8310345 -2.336913,-1.8603841 0,-1.0262018 1.046742,-1.86038415 2.336913,-1.86038415 1.292875,0 2.339617,0.83418235 2.339617,1.86038415"
                     id="Fill-26"
                     inkscape:connector-curvature="0"
                     style="fill:#1c8dba" />
                </g>
              </g>
            </g>
          </g>
        </g>
        <g
           id="Group-4"
           transform="translate(163.94416,24.241204)">
          <path
             d="m 1.2795117,48.983637 0,-47.6560254 135.0782683,0 0,47.0664474 c 1.55734,-0.471262 3.19734,-0.722969 4.89077,-0.722969 10.16126,0 18.39859,9.062643 18.39859,20.241979 0,11.179336 -8.23733,20.241979 -18.39859,20.241979 -1.69343,0 -3.33343,-0.251707 -4.89077,-0.722969 l 0,47.599131 -49.690289,0 c 0.509021,1.85483 0.782643,3.82202 0.782643,5.85952 0,11.17934 -8.23733,20.24198 -18.398593,20.24198 -10.161261,0 -18.398592,-9.06264 -18.398592,-20.24198 0,-2.0375 0.273622,-4.00469 0.782643,-5.85952 l -50.1560803,0 0,-49.254076 c 2.3387381,1.184583 4.9419878,1.84523 7.6854879,1.84523 10.1612614,0 18.3985924,-9.062643 18.3985924,-20.241979 0,-11.179336 -8.237331,-20.241979 -18.3985924,-20.241979 -2.7435001,0 -5.3467498,0.660647 -7.6854879,1.845231 z"
             id="Combined-Shape"
             inkscape:connector-curvature="0"
             style="fill:#d8d8d8;fill-opacity:0;stroke:#336e7b;stroke-width:4.19177151;stroke-miterlimit:4;stroke-dasharray:none" />
          <g
             id="Group"
             transform="matrix(0.87722608,0,0,0.84180722,43.570892,23.819587)"
             style="fill:#0099cc;stroke:#0099cc;stroke-width:2.4633543;stroke-miterlimit:4;stroke-dasharray:none">
            <path
               d="m 81.441456,0.83181691 -75.7150092,0 c -2.7567227,0 -5.00004762,2.56888459 -5.00004762,5.72567299 l 0,86.7030531 c 0,3.156787 2.24332492,5.72567 5.00004762,5.72567 l 75.7150112,0 c 2.756721,0 5.000044,-2.568883 5.000044,-5.725671 l 0,-86.7030521 c 0,-3.1567884 -2.243323,-5.72567299 -5.000046,-5.72567299 l 0,0 z M 65.369874,26.597346 l 19.643043,0 0,22.493715 -19.643043,0 0,-22.493715 0,0 z m 0,24.129622 19.643043,0 0,22.493717 -19.643043,0 0,-22.493717 0,0 z m 19.643043,-44.1694781 0,18.4039491 -19.643043,0 0,-22.4937155 16.071582,0 c 1.969882,0 3.571461,1.8348036 3.571461,4.0897664 l 0,0 z M 5.7264468,2.4677235 l 58.2148432,0 0,87.6541995 C 58.571627,82.767833 50.325784,76.259255 44.440547,74.898928 c -1.923848,-0.440932 -3.380335,-1.94424 -3.800262,-3.92921 -0.167413,-0.76204 -0.228796,-2.987451 -0.280414,-5.11381 3.429162,-3.178352 6.301679,-7.861619 7.95906,-12.973026 1.371386,-0.317916 2.599075,-2.346025 3.046906,-5.182502 0.418531,-2.905171 -0.175786,-5.308706 -1.429982,-6.103496 0.01255,-6.706578 -0.01535,-12.500947 -2.066146,-16.901439 -2.349354,-5.03872 -7.031318,-7.392732 -14.735074,-7.408709 l -0.172993,0 c -7.703757,0.01598 -12.385722,2.369989 -14.735074,7.408709 -2.035455,4.369341 -2.078704,10.113385 -2.066148,16.901439 -1.254197,0.79479 -1.84851,3.199124 -1.428584,6.115478 0.446432,2.826094 1.674123,4.853403 3.045508,5.17052 1.657382,5.109814 4.529899,9.793074 7.959061,12.973026 -0.05022,2.088021 -0.111607,4.345379 -0.28181,5.119401 -0.418531,1.979379 -1.87502,3.482687 -3.80026,3.923619 -5.883932,1.360327 -14.1296869,7.868905 -19.4993489,15.222995 l 0,-83.5644331 C 2.1549842,4.3025271 3.756562,2.4677235 5.7264468,2.4677235 l 0,0 z M 2.1549842,92.744724 C 7.1662796,85.145212 16.018642,77.871199 21.934749,76.502882 c 2.476308,-0.567134 4.356906,-2.536936 4.90797,-5.135374 0.214846,-0.984895 0.270651,-3.328525 0.332034,-5.875044 0.0056,-0.259606 -0.09626,-0.507231 -0.274835,-0.666985 -3.46125,-3.097679 -6.353297,-7.835257 -7.936738,-12.996991 -0.111608,-0.361847 -0.412951,-0.587105 -0.758936,-0.541573 -0.53572,0.101445 -1.668542,-1.350741 -2.064753,-3.853329 -0.371097,-2.575274 0.255304,-4.338985 0.867755,-4.469188 0.33901,-0.07269 0.583152,-0.566337 0.583152,-0.960934 -0.01395,-6.659451 -0.02651,-12.410685 1.89734,-16.537992 2.073122,-4.44922 6.356088,-6.528451 13.476692,-6.542829 l -0.904082,0 1.071494,0 c 7.120604,0.01438 11.403567,2.093609 13.476691,6.542829 1.923845,4.127307 1.911293,9.878541 1.897338,16.692955 -0.0014,0.3946 0.244147,0.733284 0.583155,0.805971 0.612451,0.130203 1.23885,1.893914 0.86915,4.457207 -0.397604,2.514569 -1.50113,3.943591 -2.066146,3.86531 -0.341803,-0.04473 -0.647332,0.179725 -0.758937,0.541573 -1.583442,5.164133 -4.476885,9.900911 -7.936741,12.996991 -0.178572,0.159754 -0.27902,0.472878 -0.273439,0.732485 0.05999,2.481019 0.115794,4.824648 0.329243,5.803952 0.552462,2.604029 2.43306,4.573832 4.907972,5.140965 5.9175,1.368318 14.769864,8.64233 19.78116,16.241843 l 0,4.605582 -58.2148412,0 c -1.9698848,0 -3.5714626,-1.834805 -3.5714626,-4.089764 l 0,-0.515818 z m 79.2864718,4.605582 -16.071582,0 0,-22.493714 19.643043,0 0,18.40395 c 0,2.254959 -1.601579,4.089764 -3.571461,4.089764 l 0,0 z"
               id="Shape"
               inkscape:connector-curvature="0"
               style="stroke-width:2.4633543;stroke-miterlimit:4;stroke-dasharray:none" />
          </g>
        </g>
        <path
           sodipodi:type="arc"
           style="fill:#979797;fill-opacity:1"
           id="path3796"
           sodipodi:cx="276.68839"
           sodipodi:cy="60.953266"
           sodipodi:rx="2.6862953"
           sodipodi:ry="3.134011"
           d="m 279.37468,60.953266 a 2.6862953,3.134011 0 1 1 -5.37259,0 2.6862953,3.134011 0 1 1 5.37259,0 z"
           transform="matrix(1.0354557,0,0,1.0605806,-13.602368,-5.8368345)" />
        <path
           sodipodi:type="arc"
           style="fill:#979797;fill-opacity:1"
           id="path3796-0"
           sodipodi:cx="276.68839"
           sodipodi:cy="60.953266"
           sodipodi:rx="2.6862953"
           sodipodi:ry="3.134011"
           d="m 279.37468,60.953266 a 2.6862953,3.134011 0 1 1 -5.37259,0 2.6862953,3.134011 0 1 1 5.37259,0 z"
           transform="matrix(1.0354557,0,0,1.0605806,-13.138761,15.056069)" />
        <path
           sodipodi:type="arc"
           style="fill:#979797;fill-opacity:1"
           id="path3796-2"
           sodipodi:cx="276.68839"
           sodipodi:cy="60.953266"
           sodipodi:rx="2.6862953"
           sodipodi:ry="3.134011"
           d="m 279.37468,60.953266 a 2.6862953,3.134011 0 1 1 -5.37259,0 2.6862953,3.134011 0 1 1 5.37259,0 z"
           transform="matrix(1.0354557,0,0,1.0605806,-12.675171,35.948974)" />
        <path
           sodipodi:type="arc"
           style="fill:#979797;fill-opacity:1"
           id="path3796-8"
           sodipodi:cx="276.68839"
           sodipodi:cy="60.953266"
           sodipodi:rx="2.6862953"
           sodipodi:ry="3.134011"
           d="m 279.37468,60.953266 a 2.6862953,3.134011 0 1 1 -5.37259,0 2.6862953,3.134011 0 1 1 5.37259,0 z"
           transform="matrix(1.0354557,0,0,1.0605806,-13.13876,55.417362)" />
      </g>
    </g>
  </g>
</svg>
