<?xml version="1.0" encoding="UTF-8" standalone="no"?>
<svg width="75px" height="103px" viewBox="0 0 75 103" version="1.1" xmlns="http://www.w3.org/2000/svg" xmlns:xlink="http://www.w3.org/1999/xlink">
    <!-- Generator: Sketch 3.6.1 (26313) - http://www.bohemiancoding.com/sketch -->
    <title>Group</title>
    <desc>Created with Sketch.</desc>
    <defs></defs>
    <g id="Page-1" stroke="none" stroke-width="1" fill="none" fill-rule="evenodd">
        <g id="Group" transform="translate(0.000000, 1.000000)">
            <path d="M37.68,0.043 C17.306,0.043 0.731,16.617 0.731,36.991 C0.731,47.372 5.037,56.766 11.954,63.484 L11.954,99.349 C11.954,100.114 12.354,100.823 13.01,101.218 C13.665,101.612 14.479,101.635 15.156,101.277 L37.68,89.352 L60.204,101.277 C60.524,101.446 60.875,101.53 61.225,101.53 C61.615,101.53 62.005,101.426 62.35,101.218 C63.006,100.823 63.406,100.114 63.406,99.349 L63.406,63.484 C70.323,56.766 74.628,47.372 74.628,36.991 C74.628,16.617 58.053,0.043 37.68,0.043 Z" id="Fill-36" stroke="#979797" stroke-width="0.1" fill="#000105"></path>
            <path d="M5.094,36.991 C5.094,19.023 19.712,4.405 37.68,4.405 C55.648,4.405 70.266,19.023 70.266,36.991 C70.266,54.959 55.648,69.577 37.68,69.577 C19.712,69.577 5.094,54.959 5.094,36.991" id="Fill-37" fill="#F7CA18"></path>
            <path d="M16.316,67.121 C18.762,68.861 21.428,70.309 24.263,71.417 L24.263,91.519 L16.316,95.726 L16.316,67.121" id="Fill-38" fill="#0099CC"></path>
            <path d="M36.659,84.956 L28.626,89.209 L28.626,72.816 C31.524,73.549 34.557,73.94 37.68,73.94 C40.803,73.94 43.836,73.549 46.734,72.816 L46.734,89.209 L38.701,84.956 C38.062,84.618 37.298,84.618 36.659,84.956" id="Fill-39" fill="#FFFFFF"></path>
            <path d="M59.044,95.726 L51.097,91.519 L51.097,71.417 C53.932,70.309 56.598,68.861 59.044,67.121 L59.044,95.726" id="Fill-40" fill="#0099CC"></path>
            <path d="M55.191,36.991 C55.191,46.647 47.336,54.502 37.68,54.502 C28.024,54.502 20.169,46.647 20.169,36.991 C20.169,27.335 28.024,19.48 37.68,19.48 C47.336,19.48 55.191,27.335 55.191,36.991 Z" id="Fill-42" fill="#F7CA18"></path>
        </g>
    </g>
</svg>