<?xml version="1.0" encoding="UTF-8" standalone="no"?>
<svg
   xmlns:dc="http://purl.org/dc/elements/1.1/"
   xmlns:cc="http://creativecommons.org/ns#"
   xmlns:rdf="http://www.w3.org/1999/02/22-rdf-syntax-ns#"
   xmlns:svg="http://www.w3.org/2000/svg"
   xmlns="http://www.w3.org/2000/svg"
   xmlns:sodipodi="http://sodipodi.sourceforge.net/DTD/sodipodi-0.dtd"
   xmlns:inkscape="http://www.inkscape.org/namespaces/inkscape"
   width="164px"
   height="186px"
   viewBox="0 0 164 186"
   version="1.1"
   id="svg2"
   inkscape:version="0.48.4 r9939"
   sodipodi:docname="nurture.svg">
  <metadata
     id="metadata70">
    <rdf:RDF>
      <cc:Work
         rdf:about="">
        <dc:format>image/svg+xml</dc:format>
        <dc:type
           rdf:resource="http://purl.org/dc/dcmitype/StillImage" />
      </cc:Work>
    </rdf:RDF>
  </metadata>
  <sodipodi:namedview
     pagecolor="#ffffff"
     bordercolor="#666666"
     borderopacity="1"
     objecttolerance="10"
     gridtolerance="10"
     guidetolerance="10"
     inkscape:pageopacity="0"
     inkscape:pageshadow="2"
     inkscape:window-width="1313"
     inkscape:window-height="744"
     id="namedview68"
     showgrid="false"
     inkscape:zoom="3.2282968"
     inkscape:cx="81.822168"
     inkscape:cy="93.036716"
     inkscape:window-x="53"
     inkscape:window-y="24"
     inkscape:window-maximized="1"
     inkscape:current-layer="Page-1" />
  <!-- Generator: Sketch 3.6.1 (26313) - http://www.bohemiancoding.com/sketch -->
  <title
     id="title4">Group</title>
  <desc
     id="desc6">Created with Sketch.</desc>
  <defs
     id="defs8" />
  <g
     id="Page-1"
     stroke="none"
     stroke-width="1"
     fill="none"
     fill-rule="evenodd">
    <g
       id="Group"
       transform="translate(1.000000, 2.000000)">
      <g
         id="40---Bath-Tub-(Outline)"
         stroke="#336E7B"
         stroke-width="3"
         stroke-linecap="round">
        <path
           d="M129.674266,33.1389866 L103.58363,10.9595475 C110.453082,5.12219262 121.587349,5.12219262 128.453112,10.9595475 L129.674266,11.9977874 C136.540029,17.8351422 136.540029,27.3016317 129.674266,33.1389866 L129.674266,33.1389866 Z"
           id="Stroke-46"
           stroke-linejoin="round"
           style="stroke-width:4;stroke-miterlimit:4;stroke-dasharray:none" />
        <path
           d="M149.93214,181.926901 L149.93214,8.05620851 C149.93214,0.892847403 144.313356,-2.69451836 141.026201,2.37100128 L129.061844,20.8081283"
           id="Stroke-48"
           stroke-linejoin="round"
           style="stroke-width:5;stroke-miterlimit:4;stroke-dasharray:none" />
        <path
           d="M0.644335245,181.62406 L161,181.62406"
           id="Stroke-50"
           stroke-linejoin="round"
           style="stroke-width:4;stroke-miterlimit:4;stroke-dasharray:none" />
        <path
           d="M116.277778,34.5034408 L116.277778,87.8269402"
           id="Stroke-100"
           stroke-dasharray="1,3"
           style="stroke:#0099cc;stroke-opacity:1" />
        <path
           d="M94.5928382,21.9567351 L15.2731727,89.3952785"
           id="Stroke-102"
           stroke-dasharray="1,3"
           style="fill:none;fill-opacity:1;stroke:#0099cc;stroke-opacity:1" />
        <path
           d="M105.660698,31.3667644 L68.7678308,87.8269402"
           id="Stroke-104"
           stroke-dasharray="1,3"
           style="stroke:#0099cc;stroke-opacity:1" />
      </g>
      <g
         id="49---Flower-Pot-(Outline)"
         transform="translate(77.059829, 97.003759)"
         stroke="#336E7B"
         stroke-width="2.5"
         stroke-linecap="round"
         stroke-linejoin="round">
        <path
           d="M1.45545694,55.4408867 L36.3864234,55.4408867 L36.3864234,64.1947109 L1.45545694,64.1947109 L1.45545694,55.4408867 Z"
           id="Path" />
        <path
           d="M26.7585758,84.6203008 L11.0833046,84.6203008 L4.36637081,64.1947109 L33.4755095,64.1947109 L26.7585758,84.6203008 L26.7585758,84.6203008 Z"
           id="path21" />
        <path
           d="M27.6536818,8.75382422 C27.6536818,13.5888531 23.7443245,17.5076484 18.9209402,17.5076484 C14.0975559,17.5076484 10.1881986,13.5888531 10.1881986,8.75382422 C10.1881986,3.91879531 14.0975559,0 18.9209402,0 C23.7443245,0 27.6536818,3.91879531 27.6536818,8.75382422 L27.6536818,8.75382422 Z"
           id="path23" />
        <path
           d="M37.8418803,26.2614726 C37.8418803,29.4843389 35.235157,32.0973555 32.0200526,32.0973555 C28.8049482,32.0973555 26.1982249,29.4843389 26.1982249,26.2614726 C26.1982249,23.0386064 28.8049482,20.4255898 32.0200526,20.4255898 C35.235157,20.4255898 37.8418803,23.0386064 37.8418803,26.2614726 L37.8418803,26.2614726 Z"
           id="path25" />
        <path
           d="M11.6436555,23.3435312 C11.6436555,26.5663975 9.03693212,29.1794141 5.82182774,29.1794141 C2.60672337,29.1794141 0,26.5663975 0,23.3435312 C0,20.120665 2.60672337,17.5076484 5.82182774,17.5076484 C9.03693212,17.5076484 11.6436555,20.120665 11.6436555,23.3435312 L11.6436555,23.3435312 Z"
           id="path27" />
        <path
           d="M37.8418803,42.3101504 C37.8418803,45.5330167 35.235157,48.1460332 32.0200526,48.1460332 C28.8049482,48.1460332 26.1982249,45.5330167 26.1982249,42.3101504 C26.1982249,39.0872841 28.8049482,36.4742676 32.0200526,36.4742676 C35.235157,36.4742676 37.8418803,39.0872841 37.8418803,42.3101504 L37.8418803,42.3101504 Z"
           id="path29" />
        <path
           d="M11.6436555,40.8511797 C11.6436555,44.074046 9.03693212,46.6870625 5.82182774,46.6870625 C2.60672337,46.6870625 0,44.074046 0,40.8511797 C0,37.6283134 2.60672337,35.0152969 5.82182774,35.0152969 C9.03693212,35.0152969 11.6436555,37.6283134 11.6436555,40.8511797 L11.6436555,40.8511797 Z"
           id="path31" />
        <path
           d="M18.9209402,10.2127949 L18.9209402,55.4408867 L18.9209402,10.2127949 Z"
           id="path33" />
        <path
           d="M7.27728468,24.8025019 L14.5545694,32.0973555 L7.27728468,24.8025019 Z"
           id="path35" />
        <path
           d="M7.27728468,42.3101504 L14.5545694,49.6050039 L7.27728468,42.3101504 Z"
           id="path37" />
        <path
           d="M14.5545694,49.6050039 L18.9209402,49.6050039 L14.5545694,49.6050039 Z"
           id="path39" />
        <path
           d="M30.5645957,43.7691211 L23.287311,51.0639746 L30.5645957,43.7691211 Z"
           id="path41" />
        <path
           d="M23.287311,51.0639746 L18.9209402,51.0639746 L23.287311,51.0639746 Z"
           id="path43" />
        <path
           d="M30.5645957,27.7204433 L23.287311,35.0152969 L30.5645957,27.7204433 Z"
           id="path45" />
        <path
           d="M23.287311,35.0152969 L18.9209402,35.0152969 L23.287311,35.0152969 Z"
           id="path47" />
        <path
           d="M14.5545694,32.0973555 L18.9209402,32.0973555 L14.5545694,32.0973555 Z"
           id="path49" />
        <path
           d="M11.6436555,68.571623 L20.3763971,68.571623 L11.6436555,68.571623 Z"
           id="path51"
           style="stroke:#979797;stroke-opacity:1" />
        <path
           d="M18.9209402,72.9485351 L16.0100263,72.9485351 L18.9209402,72.9485351 Z"
           id="path53"
           style="stroke:#979797;stroke-opacity:1" />
      </g>
      <g
         id="46---Flower-Pot-(Outline)"
         transform="translate(4.816239, 97.003759)">
        <path
           d="M7.91239316,52.2597532 L52.2217949,52.2597532 L52.2217949,61.7615265 L7.91239316,61.7615265 L7.91239316,52.2597532 Z"
           id="path56"
           stroke="#336E7B"
           stroke-width="2.5"
           stroke-linecap="round"
           stroke-linejoin="round" />
        <path
           d="M42.7269231,83.9323308 L17.407265,83.9323308 L11.6866047,61.7615265 L48.4475833,61.7615265 L42.7269231,83.9323308 L42.7269231,83.9323308 Z"
           id="path58"
           stroke="#336E7B"
           stroke-width="2.5"
           stroke-linecap="round"
           stroke-linejoin="round" />
        <path
           d="M22.1547009,66.0451128 L31.6495726,66.0451128 L22.1547009,66.0451128 Z"
           id="path60"
           stroke="#336E7B"
           stroke-width="2.5"
           stroke-linecap="round"
           stroke-linejoin="round"
           style="stroke:#979797;stroke-opacity:1" />
        <path
           d="M30.067094,70.8609023 L26.9021368,70.8609023 L30.067094,70.8609023 Z"
           id="path62"
           stroke="#336E7B"
           stroke-width="2.5"
           stroke-linecap="round"
           stroke-linejoin="round"
           style="stroke:#979797;stroke-opacity:1" />
        <path
           d="M20.5722222,23.7544333 C20.5722222,24.6285964 19.8632718,25.3380621 18.9897436,25.3380621 C18.1162154,25.3380621 17.407265,24.6285964 17.407265,23.7544333 C17.407265,22.8802701 18.1162154,22.1708044 18.9897436,22.1708044 C19.8632718,22.1708044 20.5722222,22.8802701 20.5722222,23.7544333"
           id="Fill-6"
           fill="#336E7C" />
        <path
           d="M39.5619658,12.6690311 C39.5619658,13.5431942 38.8530154,14.25266 37.9794872,14.25266 C37.105959,14.25266 36.3970085,13.5431942 36.3970085,12.6690311 C36.3970085,11.7948679 37.105959,11.0854022 37.9794872,11.0854022 C38.8530154,11.0854022 39.5619658,11.7948679 39.5619658,12.6690311"
           id="Fill-7"
           fill="#336E7C" />
        <path
           d="M41.1444444,33.2562066 C41.1444444,34.1303697 40.435494,34.8398354 39.5619658,34.8398354 C38.6884376,34.8398354 37.9794872,34.1303697 37.9794872,33.2562066 C37.9794872,32.3820434 38.6884376,31.6725777 39.5619658,31.6725777 C40.435494,31.6725777 41.1444444,32.3820434 41.1444444,33.2562066"
           id="Fill-8"
           fill="#336E7C" />
        <path
           d="M29.0274056,21.6276197 C30.3187081,22.9198608 32.1622957,23.29043 33.7938312,22.7836687 C33.8238983,22.8406794 33.8618778,22.8929391 33.8935274,22.9483662 C34.3935906,22.9436153 34.8936538,22.9911241 35.3763098,23.1415689 C36.1691316,21.6292033 37.7357855,20.5871755 39.5619658,20.5871755 C41.3185171,20.5871755 42.8266192,21.5563564 43.6463432,22.9768715 C44.8363671,22.9657861 46.0216436,22.5366226 46.9315688,21.6276197 C48.2228714,20.3353785 48.5931714,18.4888672 48.0867782,16.8577295 C49.5964628,16.0643314 50.6393162,14.4965388 50.6393162,12.6690311 C50.6393162,10.8415233 49.5964628,9.27373074 48.0867782,8.47874904 C48.5931714,6.84761129 48.2228714,5.00268364 46.9315688,3.71044247 C45.6402662,2.41820131 43.7966786,2.04763215 42.1651432,2.55439339 C41.3723214,1.04202781 39.8056675,0 37.9794872,0 C36.1533068,0 34.586653,1.04202781 33.7938312,2.55439339 C32.1622957,2.04763215 30.3187081,2.41820131 29.0274056,3.71044247 C27.736103,5.00268364 27.365803,6.84761129 27.8721962,8.47874904 C26.3609291,9.27373074 25.3196581,10.8415233 25.3196581,12.6690311 C25.3196581,14.4965388 26.3609291,16.0643314 27.8721962,16.8577295 C27.365803,18.4888672 27.736103,20.3353785 29.0274056,21.6276197 L29.0274056,21.6276197 Z M18.9897436,45.9252376 L18.9897436,45.9252376 C8.50265769,45.9252376 0,37.4163996 0,26.921691 C10.4870859,26.921691 18.9897436,35.430529 18.9897436,45.9252376 L18.9897436,45.9252376 Z M44.3094017,47.5088665 L44.3094017,47.5088665 C44.3094017,37.0141579 52.8120594,28.5053199 63.2991453,28.5053199 C63.2991453,39.0000285 54.7964876,47.5088665 44.3094017,47.5088665 L44.3094017,47.5088665 Z M29.0274056,21.6276197 C27.736103,20.3353785 27.365803,18.4888672 27.8721962,16.8577295 C26.6030483,16.1894381 25.6725509,14.9716275 25.405112,13.5162725 C24.664512,13.3911658 23.9001748,13.4149203 23.1753996,13.6397956 C22.3825778,12.12743 20.8159239,11.0854022 18.9897436,11.0854022 C17.1635632,11.0854022 15.5969094,12.12743 14.8040876,13.6397956 C13.1725521,13.1330343 11.3289645,13.5036035 10.037662,14.7958447 C8.7463594,16.0880858 8.3760594,17.9330135 8.88245256,19.5641512 C7.37118547,20.3591329 6.32991453,21.9269255 6.32991453,23.7544333 C6.32991453,25.581941 7.37118547,27.14815 8.88245256,27.9431316 C8.77167906,28.3026154 8.72103974,28.6716009 8.69413761,29.0437537 C11.0093038,30.2393935 13.0522838,31.8879512 14.6917316,33.8880745 C14.7281286,33.8769891 14.7661081,33.8801563 14.8040876,33.8690709 C15.5969094,35.3814365 17.1635632,36.4234643 18.9897436,36.4234643 C20.8159239,36.4234643 22.3825778,35.3814365 23.1753996,33.8690709 C24.4128979,34.2538928 25.7706645,34.1272024 26.9179615,33.4826655 C26.9147966,33.4066513 26.9021368,33.3322207 26.9021368,33.2562066 C26.9021368,31.492044 27.8785261,29.9765111 29.3043393,29.1593586 C29.2853496,28.7491988 29.2188855,28.3390389 29.0970346,27.9431316 C29.1492564,27.91621 29.1951483,27.8813701 29.2473701,27.8512812 C29.1872359,26.571709 29.6319124,25.2763006 30.6098842,24.297618 C30.9216325,23.9856431 31.2681953,23.7338461 31.6337479,23.5279743 C31.6226705,23.3157681 31.6005158,23.1098963 31.5641188,22.9056082 C30.6367863,22.7504125 29.7442684,22.3450035 29.0274056,21.6276197 L29.0274056,21.6276197 Z M52.0888667,32.1935916 C51.7739534,30.8332544 50.8751056,29.7025433 49.6692568,29.0659245 C50.17565,27.4347868 49.80535,25.5898591 48.5140474,24.297618 C47.2227449,23.0053768 45.3791573,22.6348076 43.7476218,23.1415689 C42.9548,21.6292033 41.3881462,20.5871755 39.5619658,20.5871755 C37.7357855,20.5871755 36.1691316,21.6292033 35.3763098,23.1415689 C33.7447744,22.6348076 31.9011868,23.0053768 30.6098842,24.297618 C29.3185816,25.5898591 28.9482816,27.4347868 29.4546748,29.0659245 C27.9434077,29.8609062 26.9021368,31.4286988 26.9021368,33.2562066 C26.9021368,35.0837143 27.9434077,36.6499233 29.4546748,37.444905 C28.9482816,39.0760427 29.3185816,40.922554 30.6098842,42.2147951 C31.9011868,43.5070363 33.7447744,43.8776055 35.3763098,43.3708442 C36.1691316,44.8832098 37.7357855,45.9252376 39.5619658,45.9252376 C41.3881462,45.9252376 42.9548,44.8832098 43.7476218,43.3708442 C44.068865,43.4706129 44.399603,43.5070363 44.730341,43.5387089 C45.7162252,38.9018435 48.3985265,34.9031806 52.0888667,32.1935916 L52.0888667,32.1935916 Z M18.9897436,36.4234643 L18.9897436,52.2597532 L18.9897436,36.4234643 Z M39.5619658,45.9252376 L39.5619658,52.2597532 L39.5619658,45.9252376 Z M28.4846154,36.4234643 L28.4846154,52.2597532 L28.4846154,36.4234643 Z M44.3094017,47.5088665 L44.3094017,52.2597532 L44.3094017,47.5088665 Z M23.7371795,34.8398354 L23.7371795,52.2597532 L23.7371795,34.8398354 Z M34.8145299,44.3416087 L34.8145299,52.2597532 L34.8145299,44.3416087 Z"
           id="Stroke-9"
           stroke="#336E7B"
           stroke-width="2.5"
           stroke-linecap="round"
           stroke-linejoin="round" />
      </g>
    </g>
    <path
       style="fill:none;stroke:#87d37c;stroke-width:2;stroke-linecap:round;stroke-linejoin:miter;stroke-miterlimit:4;stroke-opacity:1;stroke-dasharray:none"
       d="m 10.531869,129.93329 c 1.987382,4.95003 4.648105,9.05839 9.912348,9.91234"
       id="path3815"
       inkscape:connector-curvature="0"
       sodipodi:nodetypes="cc" />
    <path
       style="fill:none;stroke:#87d37c;stroke-width:2;stroke-linecap:round;stroke-linejoin:miter;stroke-miterlimit:4;stroke-opacity:1;stroke-dasharray:none"
       d="m 53.89839,142.32372 c 4.845705,-2.84308 8.965896,-6.04892 10.531869,-10.53187"
       id="path3819"
       inkscape:connector-curvature="0"
       sodipodi:nodetypes="cc" />
    <path
       style="fill:none;stroke:#979797;stroke-width:2.23588157;stroke-linecap:round;stroke-linejoin:miter;stroke-miterlimit:4;stroke-opacity:1;stroke-dasharray:none"
       d="m 114.37945,15.478889 c 4.46397,-1.488536 8.55233,-1.558561 11.61551,2.243263"
       id="path3821"
       inkscape:connector-curvature="0"
       sodipodi:nodetypes="cc" />
    <path
       style="fill:none;stroke:#ec644b;stroke-width:2;stroke-linecap:round;stroke-linejoin:miter;stroke-miterlimit:4;stroke-opacity:1;stroke-dasharray:none"
       d="m 95.406345,103.60362 c 3.220713,0.13533 6.100625,-0.33083 5.885455,4.95617"
       id="path3823"
       inkscape:connector-curvature="0"
       sodipodi:nodetypes="cc" />
  </g>
</svg>
