<?xml version="1.0" encoding="UTF-8" standalone="no"?>
<svg
   xmlns:dc="http://purl.org/dc/elements/1.1/"
   xmlns:cc="http://creativecommons.org/ns#"
   xmlns:rdf="http://www.w3.org/1999/02/22-rdf-syntax-ns#"
   xmlns:svg="http://www.w3.org/2000/svg"
   xmlns="http://www.w3.org/2000/svg"
   xmlns:sodipodi="http://sodipodi.sourceforge.net/DTD/sodipodi-0.dtd"
   xmlns:inkscape="http://www.inkscape.org/namespaces/inkscape"
   width="199px"
   height="110px"
   viewBox="0 0 199 110"
   version="1.1"
   id="svg2"
   inkscape:version="0.48.4 r9939"
   sodipodi:docname="orgs_scale.svg">
  <metadata
     id="metadata63">
    <rdf:RDF>
      <cc:Work
         rdf:about="">
        <dc:format>image/svg+xml</dc:format>
        <dc:type
           rdf:resource="http://purl.org/dc/dcmitype/StillImage" />
      </cc:Work>
    </rdf:RDF>
  </metadata>
  <sodipodi:namedview
     pagecolor="#ffffff"
     bordercolor="#666666"
     borderopacity="1"
     objecttolerance="10"
     gridtolerance="10"
     guidetolerance="10"
     inkscape:pageopacity="0"
     inkscape:pageshadow="2"
     inkscape:window-width="1313"
     inkscape:window-height="744"
     id="namedview61"
     showgrid="false"
     showguides="true"
     inkscape:guide-bbox="true"
     inkscape:zoom="5.4272727"
     inkscape:cx="99.5"
     inkscape:cy="55"
     inkscape:window-x="53"
     inkscape:window-y="24"
     inkscape:window-maximized="1"
     inkscape:current-layer="g3970"
     inkscape:snap-center="false">
    <sodipodi:guide
       orientation="0,1"
       position="95.410959,-65.424658"
       id="guide3859" />
    <sodipodi:guide
       orientation="0,1"
       position="-5.3433836,1.4740369"
       id="guide3965" />
    <sodipodi:guide
       orientation="1,0"
       position="3.3165829,15.293132"
       id="guide3967" />
  </sodipodi:namedview>
  <!-- Generator: Sketch 3.6.1 (26313) - http://www.bohemiancoding.com/sketch -->
  <title
     id="title4">Group 3</title>
  <desc
     id="desc6">Created with Sketch.</desc>
  <defs
     id="defs8" />
  <g
     id="Page-1"
     stroke="none"
     stroke-width="1"
     fill="none"
     fill-rule="evenodd">
    <g
       id="Group-3"
       transform="translate(-1.000000, 0.000000)"
       fill="#336E7B">
      <g
         id="Group-2"
         transform="translate(100.000000, 55.500000) scale(-1, 1) translate(-100.000000, -55.500000) translate(-0.000000, 0.000000)">
        <g
           id="Group"
           transform="translate(-0.000000, 55.260664)" />
        <g
           id="noun_179107_cc"
           transform="translate(89.081152, 0.000000)">
          <g
             id="g16">
            <path
               d="m 82.241064,108.52596 -55.235828,0 0,-106.52596 55.631138,0 -0.368509,105.42044 z m -52.577146,-1.71835 50.313773,0 0,-102.1506854 -50.313773,0 z"
               id="path18"
               inkscape:connector-curvature="0"
               sodipodi:nodetypes="ccccccccccc" />
            <path
               d="m 29.627156,107.42044 -25.9511447,0 0.3685092,-86.652667 25.5826355,0 z m -22.9239528,-2.49956 20.2652698,0 0,-81.496183 -20.2652698,0 z"
               id="path20"
               inkscape:connector-curvature="0"
               sodipodi:nodetypes="cccccccccc" />
            <path
               d="m 108.44476,107.42044 -27.951152,0 0.368509,-86.652667 25.582643,0 0.15751,86.652667 z m -24.92396,-2.49956 20.26527,0 0,-81.496183 -20.26527,0 z"
               id="path22"
               inkscape:connector-curvature="0"
               sodipodi:nodetypes="ccccccccccc" />
            <path
               d="m 68.701565,108.52596 -27.509686,0 0,-11.181624 27.822446,-0.184255 0,11.365879 z m -25.188277,-1.90782 23.293413,0 0,-6.985389 -23.293413,0 z"
               id="path24"
               inkscape:connector-curvature="0"
               sodipodi:nodetypes="ccccccccccc" />
            <g
               transform="translate(35.852310, 11.642312)"
               id="Rectangle-path">
              <rect
                 x="33.3403141"
                 y="0"
                 width="4.65868266"
                 height="13.9707739"
                 id="rect27" />
              <rect
                 x="16.6701571"
                 y="0"
                 width="4.65868266"
                 height="13.9707739"
                 id="rect29" />
              <rect
                 x="-2.66453526e-15"
                 y="0"
                 width="4.65868266"
                 height="13.9707739"
                 id="rect31" />
            </g>
            <g
               transform="translate(35.852310, 37.255397)"
               id="g33">
              <rect
                 x="33.3403141"
                 y="0"
                 width="4.65868266"
                 height="13.9707739"
                 id="rect35" />
              <rect
                 x="16.6701571"
                 y="0"
                 width="4.65868266"
                 height="13.9707739"
                 id="rect37" />
              <rect
                 x="-2.66453526e-15"
                 y="0"
                 width="4.65868266"
                 height="13.9707739"
                 id="rect39" />
            </g>
            <g
               transform="translate(35.852310, 62.868483)"
               id="g41">
              <rect
                 x="33.3403141"
                 y="0"
                 width="4.65868266"
                 height="13.9707739"
                 id="rect43" />
              <rect
                 x="16.6701571"
                 y="0"
                 width="4.65868266"
                 height="13.9707739"
                 id="rect45" />
              <rect
                 x="-2.66453526e-15"
                 y="0"
                 width="4.65868266"
                 height="13.9707739"
                 id="rect47" />
            </g>
          </g>
          <rect
             id="rect59-4"
             x="88.752953"
             y="35.346653"
             width="10.300988"
             height="9.5977917"
             style="fill:#979797;fill-opacity:1" />
          <rect
             id="rect59-4-8"
             x="88.412186"
             y="58.177132"
             width="10.300988"
             height="9.5977917"
             style="fill:#979797;fill-opacity:1" />
          <rect
             id="rect59-4-8-9"
             x="88.412193"
             y="80.666862"
             width="10.300988"
             height="9.5977917"
             style="fill:#979797;fill-opacity:1" />
          <rect
             id="rect59-4-0"
             x="11.401917"
             y="35.687401"
             width="10.300988"
             height="9.5977917"
             style="fill:#979797;fill-opacity:1" />
          <rect
             id="rect59-4-7"
             x="11.401917"
             y="57.495621"
             width="10.300988"
             height="9.5977917"
             style="fill:#979797;fill-opacity:1" />
          <rect
             id="rect59-4-2"
             x="11.401917"
             y="80.666847"
             width="10.300988"
             height="9.5977917"
             style="fill:#979797;fill-opacity:1" />
          <g
             id="g3970"
             transform="translate(5.5276382,-1.2897823)">
            <path
               sodipodi:nodetypes="ccccccssccssccsccsccsssscccccccccsccsscccscsssssscss"
               inkscape:connector-curvature="0"
               id="Shape"
               d="M 72.481517,19.299072 40.112373,4 7.7432284,19.299072 c -1.5627803,0.783727 -8.19013868,2.686949 -7.40393503,4.247991 0.78861043,1.561844 2.69154413,2.187704 4.25111543,1.402374 l 1.6109152,-0.80937 0,27.905642 c 0,1.453661 1.1857234,2.63406 2.6402002,2.63406 l 9.2362878,0 44.069121,0 9.237893,0 c 1.454477,0 2.638596,-1.180399 2.638596,-2.63406 l 0,-27.905642 1.610113,0.80937 c 0.454072,0.22999 0.94184,0.338173 1.421584,0.338173 1.157645,0 2.272771,-0.637079 2.831136,-1.740547 0.786203,-1.561042 -5.841957,-3.464264 -7.404738,-4.247991 z m -9.806704,14.73214 -45.12488,0 0,-6.502208 c 0,-0.284481 0.242279,-0.526491 0.527077,-0.526491 l 44.069121,0 c 0.286403,0 0.528682,0.24201 0.528682,0.526491 z m -45.12488,2.109171 45.12488,0 0,7.292345 -45.12488,0 z m 0.527077,16.431016 c -0.284798,0 -0.527077,-0.242811 -0.527077,-0.52569 l 0,-6.504611 45.12488,0 0,6.504611 c 0,0.283681 -0.242279,0.52569 -0.528682,0.52569 z m 53.833289,-0.52569 c 0,0.283681 -0.241477,0.52569 -0.526275,0.52569 l -6.650641,0 c 0.0353,-0.170689 0.05054,-0.346186 0.05054,-0.52569 l 0,-24.516705 c 0,-1.455263 -1.181713,-2.635662 -2.638596,-2.635662 l -44.068319,0 c -1.455279,0 -2.636991,1.180399 -2.636991,2.635662 l 0,24.516705 c 0,0.180306 0.01605,0.355001 0.05054,0.52569 l -6.6498391,0 c -0.2847982,0 -0.5262751,-0.242811 -0.5262751,-0.52569 l 0,-28.967439 L 40.112373,7.0807872 71.910299,23.07827 z"
               transform="translate(-89.081152,55.260664)" />
            <rect
               style="fill:#0099cc;fill-opacity:1"
               height="2.1065791"
               width="41.008881"
               y="85.348747"
               x="-69.513901"
               id="rect59-4-7-8" />
            <rect
               style="fill:#0099cc;fill-opacity:1"
               height="2.1065791"
               width="41.008881"
               y="94.875641"
               x="-69.536568"
               id="rect59-4-7-8-1" />
            <rect
               style="fill:#0099cc;fill-opacity:1"
               height="2.1065791"
               width="41.008881"
               y="104.25636"
               x="-69.53656"
               id="rect59-4-7-8-7" />
          </g>
        </g>
      </g>
    </g>
  </g>
</svg>
