<?xml version="1.0" encoding="UTF-8" standalone="no"?>
<svg width="58px" height="53px" viewBox="0 0 58 53" version="1.1" xmlns="http://www.w3.org/2000/svg" xmlns:xlink="http://www.w3.org/1999/xlink" xmlns:sketch="http://www.bohemiancoding.com/sketch/ns">
    <!-- Generator: Sketch 3.2.2 (9983) - http://www.bohemiancoding.com/sketch -->
    <title>22 - Binoculars (Flat)</title>
    <desc>Created with Sketch.</desc>
    <defs></defs>
    <g id="Page-1" stroke="none" stroke-width="1" fill="none" fill-rule="evenodd" sketch:type="MSPage">
        <g id="22---Binoculars-(Flat)" sketch:type="MSLayerGroup">
            <path d="M23,36 C22.447,36 22,36.448 22,37 L22,39 C22,39.552 22.447,40 23,40 C23.553,40 24,39.552 24,39 L24,37 C24,36.448 23.553,36 23,36" id="Fill-67" fill="#694F87" sketch:type="MSShapeGroup"></path>
            <path d="M35,36 C34.447,36 34,36.448 34,37 L34,39 C34,39.552 34.447,40 35,40 C35.553,40 36,39.552 36,39 L36,37 C36,36.448 35.553,36 35,36" id="Fill-68" fill="#694F87" sketch:type="MSShapeGroup"></path>
            <path d="M53,14 L41,14 L41,18 L37,18 L37,21 L39,21 L39,25 L37,25 L37,28 L41,28 L41,33 L39,33 L39,37 L56,37 L56,33 C56,32.865 53,14 53,14" id="Fill-96" fill="#556080" sketch:type="MSShapeGroup"></path>
            <path d="M5,14 L17,14 L17,18 L21,18 L21,21 L19,21 L19,25 L21,25 L21,28 L17,28 L17,33 L19,33 L19,37 L2,37 L2,33 C2,32.865 5,14 5,14" id="Fill-97" fill="#556080" sketch:type="MSShapeGroup"></path>
            <path d="M7,9 L15,9 L15,14 L7,14 L7,9 Z" id="Fill-396" fill="#38454F" sketch:type="MSShapeGroup"></path>
            <path d="M17.339,9 L4.661,9 C4.296,9 4,8.704 4,8.339 L4,0.661 C4,0.296 4.296,0 4.661,0 L17.339,0 C17.704,0 18,0.296 18,0.661 L18,8.339 C18,8.704 17.704,9 17.339,9" id="Fill-397" fill="#556080" sketch:type="MSShapeGroup"></path>
            <path d="M4,4 L18,4 L18,6 L4,6 L4,4 Z" id="Fill-398" fill="#38454F" sketch:type="MSShapeGroup"></path>
            <path d="M43,9 L51,9 L51,14 L43,14 L43,9 Z" id="Fill-399" fill="#38454F" sketch:type="MSShapeGroup"></path>
            <path d="M40.661,9 L53.339,9 C53.704,9 54,8.704 54,8.339 L54,0.661 C54,0.296 53.704,0 53.339,0 L40.661,0 C40.296,0 40,0.296 40,0.661 L40,8.339 C40,8.704 40.296,9 40.661,9" id="Fill-400" fill="#556080" sketch:type="MSShapeGroup"></path>
            <path d="M40,4 L54,4 L54,6 L40,6 L40,4 Z" id="Fill-401" fill="#38454F" sketch:type="MSShapeGroup"></path>
            <path d="M19,21 L39,21 L39,25 L19,25 L19,21 Z" id="Fill-402" fill="#7383BF" sketch:type="MSShapeGroup"></path>
            <path d="M19,33 L39,33 L39,37 L19,37 L19,33 Z" id="Fill-403" fill="#7383BF" sketch:type="MSShapeGroup"></path>
            <path d="M27,25 L31,25 L31,33 L27,33 L27,25 Z" id="Fill-404" fill="#694F87" sketch:type="MSShapeGroup"></path>
            <path d="M27,37 L27,40.392 C27,40.728 27.272,41 27.608,41 L30.392,41 C30.728,41 31,40.728 31,40.392 L31,37 L27,37" id="Fill-405" fill="#694F87" sketch:type="MSShapeGroup"></path>
            <path d="M2.947,27 L11,27 L11,20 L4.053,20 L2.947,27" id="Fill-406" fill="#38454F" sketch:type="MSShapeGroup"></path>
            <path d="M53.947,20 L47,20 L47,27 L55.053,27 L53.947,20" id="Fill-407" fill="#38454F" sketch:type="MSShapeGroup"></path>
            <path d="M3,37 L18,37 L18,43 L3,43 L3,37 Z" id="Fill-408" fill="#38454F" sketch:type="MSShapeGroup"></path>
            <path d="M0,43 L21,43 L21,53 L0,53 L0,43 Z" id="Fill-409" fill="#556080" sketch:type="MSShapeGroup"></path>
            <path d="M40,37 L55,37 L55,43 L40,43 L40,37 Z" id="Fill-410" fill="#38454F" sketch:type="MSShapeGroup"></path>
            <path d="M37,43 L58,43 L58,53 L37,53 L37,43 Z" id="Fill-411" fill="#556080" sketch:type="MSShapeGroup"></path>
            <path d="M29,11 C26.791,11 25,12.791 25,15 L25,17 C25,17.552 25.448,18 26,18 C26.552,18 27,18.448 27,19 L27,21 L31,21 L31,19 C31,18.448 31.448,18 32,18 C32.552,18 33,17.552 33,17 L33,15 C33,12.791 31.209,11 29,11 L29,11 Z M30,17 C30,17.552 29.553,18 29,18 C28.447,18 28,17.552 28,17 L28,14 C28,13.448 28.447,13 29,13 C29.553,13 30,13.448 30,14 L30,17 L30,17 Z" id="Fill-690" fill="#694F87" sketch:type="MSShapeGroup"></path>
            <path d="M6,2 C6,2.552 6.447,3 7,3 C7.553,3 8,2.552 8,2 L8,0 L6,0 L6,2" id="Fill-691" fill="#7383BF" sketch:type="MSShapeGroup"></path>
            <path d="M10,2 C10,2.552 10.447,3 11,3 C11.553,3 12,2.552 12,2 L12,0 L10,0 L10,2" id="Fill-692" fill="#7383BF" sketch:type="MSShapeGroup"></path>
            <path d="M14,2 C14,2.552 14.447,3 15,3 C15.553,3 16,2.552 16,2 L16,0 L14,0 L14,2" id="Fill-693" fill="#7383BF" sketch:type="MSShapeGroup"></path>
            <path d="M42,2 C42,2.552 42.447,3 43,3 C43.553,3 44,2.552 44,2 L44,0 L42,0 L42,2" id="Fill-694" fill="#7383BF" sketch:type="MSShapeGroup"></path>
            <path d="M46,2 C46,2.552 46.447,3 47,3 C47.553,3 48,2.552 48,2 L48,0 L46,0 L46,2" id="Fill-695" fill="#7383BF" sketch:type="MSShapeGroup"></path>
            <path d="M50,2 C50,2.552 50.447,3 51,3 C51.553,3 52,2.552 52,2 L52,0 L50,0 L50,2" id="Fill-696" fill="#7383BF" sketch:type="MSShapeGroup"></path>
        </g>
    </g>
</svg>