<?xml version="1.0" encoding="UTF-8"?>
<svg width="296px" height="108px" viewBox="0 0 296 108" version="1.1" xmlns="http://www.w3.org/2000/svg" xmlns:xlink="http://www.w3.org/1999/xlink">
    <!-- Generator: Sketch 43.1 (39012) - http://www.bohemiancoding.com/sketch -->
    <title>deducely-new-logo</title>
    <desc>Created with Sketch.</desc>
    <defs>
        <path d="M91.8055531,65.3829184 C82.4754849,89.8963158 55.0618901,102.200875 30.5719098,92.8636813 C6.08482709,83.5264873 -6.20652363,56.0805322 3.12064704,31.5671348 C12.4478177,7.05083678 39.8614125,-5.25372265 64.3513928,4.08347132 C88.841373,13.4235659 101.132724,40.8666203 91.8055531,65.3829184 L91.8055531,65.3829184 Z" id="path-1"></path>
        <path d="M91.8055531,65.3829184 C82.4754849,89.8963158 55.0618901,102.200875 30.5719098,92.8636813 C6.08482709,83.5264873 -6.20652363,56.0805322 3.12064704,31.5671348 C12.4478177,7.05083678 39.8614125,-5.25372265 64.3513928,4.08347132 C88.841373,13.4235659 101.132724,40.8666203 91.8055531,65.3829184 L91.8055531,65.3829184 Z" id="path-3"></path>
        <path d="M91.8055531,65.3829184 C82.4754849,89.8963158 55.0618901,102.200875 30.5719098,92.8636813 C6.08482709,83.5264873 -6.20652363,56.0805322 3.12064704,31.5671348 C12.4478177,7.05083678 39.8614125,-5.25372265 64.3513928,4.08347132 C88.841373,13.4235659 101.132724,40.8666203 91.8055531,65.3829184 L91.8055531,65.3829184 Z" id="path-5"></path>
    </defs>
    <g id="Page-1" stroke="none" stroke-width="1" fill="none" fill-rule="evenodd">
        <g id="deducely-new-logo" transform="translate(0.000000, -1.000000)">
            <path d="M110.914808,36.7563986 L110.914808,69.1305588 L115.600125,69.1305588 C120.862051,69.1305588 125.014221,67.659929 128.053737,64.7215701 C131.298978,61.4728415 132.918701,57.5453607 132.918701,52.9304258 C132.918701,48.3328947 131.298978,44.4025133 128.053737,41.1363808 C125.014221,38.2183264 120.862051,36.7563986 115.600125,36.7563986 L110.914808,36.7563986 L110.914808,36.7563986 Z M115.626202,34.6041159 C121.650181,34.6389237 126.318113,36.3242017 129.632895,39.6599497 C133.289586,43.3408752 135.120829,47.7643672 135.120829,52.9304258 C135.120829,58.1312921 133.289586,62.5634861 129.632895,66.2270077 C126.318113,69.5424512 121.650181,71.2219279 115.626202,71.253835 L108.843069,71.253835 L108.843069,34.6041159 L115.626202,34.6041159 L115.626202,34.6041159 Z" id="Fill-1" fill="#1C8DBA" fill-rule="nonzero"></path>
            <path d="M140.713075,56.066029 L160.439505,56.066029 C159.955616,54.4938764 159.138511,53.12767 157.982394,51.9703105 C155.945426,49.9340538 153.49411,48.9130248 150.628446,48.9130248 C147.762782,48.9130248 145.314363,49.9340538 143.277395,51.9703105 C142.069122,53.2001863 141.214349,54.5605914 140.713075,56.066029 L140.713075,56.066029 Z M140.324805,58.1660999 C140.27265,58.5286813 140.246572,58.9173684 140.246572,59.3321614 C140.246572,62.2009048 141.26071,64.6461532 143.288985,66.6650059 C145.317261,68.6867593 147.762782,69.6990863 150.628446,69.6990863 C153.49411,69.6990863 155.945426,68.680958 157.982394,66.6418007 C158.327201,66.2937226 158.654622,65.9311413 158.967556,65.5540568 L161.166787,66.3314311 C160.908906,66.7607274 160.364169,67.3843672 159.535474,68.1965494 C157.084158,70.6679036 154.11708,71.9035807 150.628446,71.9035807 C147.174582,71.9035807 144.221992,70.6708043 141.761983,68.208152 C139.301975,65.7484004 138.073419,62.7868362 138.073419,59.3321614 C138.073419,55.8426789 139.301975,52.8695121 141.761983,50.4155618 C144.221992,47.9616115 147.174582,46.7346363 150.628446,46.7346363 C154.11708,46.7346363 157.084158,47.9616115 159.535474,50.4155618 C161.694138,52.5939503 162.772022,55.1755293 162.772022,58.1660999 L140.324805,58.1660999 L140.324805,58.1660999 Z" id="Fill-2" fill="#1C8DBA" fill-rule="nonzero"></path>
            <path d="M188.377554,61.3539148 L188.377554,57.2843022 C187.997977,55.2654494 187.047585,53.4902513 185.529275,51.9703105 C183.492307,49.9340538 181.040991,48.9130248 178.178225,48.9130248 C175.309663,48.9130248 172.864143,49.9340538 170.835867,51.9703105 C168.807591,54.0094678 167.796351,56.4663187 167.796351,59.3321614 C167.796351,62.2009048 168.807591,64.6461532 170.835867,66.6650059 C172.864143,68.6867593 175.309663,69.6990863 178.178225,69.6990863 C181.040991,69.6990863 183.492307,68.680958 185.529275,66.6418007 C187.047585,65.1218598 187.997977,63.3582643 188.377554,61.3539148 L188.377554,61.3539148 Z M190.449293,71.253835 L188.377554,71.253835 L188.377554,66.6650059 C187.977694,67.2045269 187.548859,67.7150414 187.082355,68.1965494 C184.631039,70.6679036 181.663961,71.9035807 178.178225,71.9035807 C174.724361,71.9035807 171.768874,70.6708043 169.308865,68.208152 C166.848856,65.7484004 165.620301,62.7868362 165.620301,59.3321614 C165.620301,55.8426789 166.848856,52.8695121 169.308865,50.4155618 C171.768874,47.9616115 174.724361,46.7346363 178.178225,46.7346363 C181.663961,46.7346363 184.631039,47.9616115 187.082355,50.4155618 C187.548859,50.8999704 187.977694,51.4075843 188.377554,51.9442046 L188.377554,34.6041159 L190.449293,34.6041159 L190.449293,71.253835 L190.449293,71.253835 Z" id="Fill-3" fill="#1C8DBA" fill-rule="nonzero"></path>
            <path d="M204.27344,71.5671053 C201.459932,71.5671053 199.223034,70.7375192 197.56854,69.0754465 C195.911149,67.419175 195.056376,65.3191041 195.00422,62.7781342 L195.00422,48.7331845 L197.075959,48.7331845 L197.075959,62.5982939 C197.075959,64.49822 197.765573,66.1225843 199.147698,67.4713868 C200.512438,68.8346925 202.210394,69.519246 204.25026,69.519246 C206.145249,69.519246 207.782357,68.8404938 209.152892,67.4829894 C210.526325,66.1283856 211.213041,64.49822 211.213041,62.5982939 L211.213041,48.7331845 L213.28478,48.7331845 L213.28478,62.7781342 C213.232624,65.3191041 212.377851,67.419175 210.72046,69.0754465 C209.063069,70.7375192 206.913096,71.5671053 204.27344,71.5671053" id="Fill-4" fill="#1C8DBA" fill-rule="nonzero"></path>
            <path d="M237.516879,65.8383205 L239.692929,66.6418007 C239.293069,67.1755204 238.846848,67.6947368 238.345575,68.1965494 C235.894259,70.6679036 232.927181,71.9035807 229.438547,71.9035807 C225.987581,71.9035807 223.032093,70.6708043 220.572084,68.208152 C218.112076,65.7484004 216.88352,62.7781342 216.88352,59.3060556 C216.88352,55.8339769 218.112076,52.8695121 220.572084,50.4155618 C223.032093,47.9616115 225.987581,46.7346363 229.438547,46.7346363 C232.927181,46.7346363 235.894259,47.9616115 238.345575,50.4155618 C238.846848,50.9173743 239.293069,51.4336901 239.692929,51.9703105 L237.516879,52.7737907 C237.293769,52.4982289 237.053273,52.2226671 236.792495,51.9442046 C234.755527,49.9253519 232.304211,48.9130248 229.438547,48.9130248 C226.590268,48.9130248 224.15344,49.9282525 222.125164,51.9587079 C220.096888,53.9891632 219.085648,56.4373122 219.085648,59.3060556 C219.085648,62.1747989 220.096888,64.622948 222.125164,66.6534033 C224.15344,68.6867593 226.590268,69.6990863 229.438547,69.6990863 C232.304211,69.6990863 234.755527,68.680958 236.792495,66.6418007 C237.053273,66.3836428 237.293769,66.1138823 237.516879,65.8383205" id="Fill-5" fill="#1C8DBA" fill-rule="nonzero"></path>
            <path d="M245.027294,56.066029 L264.753724,56.066029 C264.269836,54.4938764 263.45273,53.12767 262.296613,51.9703105 C260.259645,49.9340538 257.808329,48.9130248 254.942665,48.9130248 C252.077001,48.9130248 249.628583,49.9340538 247.591614,51.9703105 C246.383341,53.2001863 245.528568,54.5605914 245.027294,56.066029 L245.027294,56.066029 Z M244.639024,58.1660999 C244.586869,58.5286813 244.560791,58.9173684 244.560791,59.3321614 C244.560791,62.2009048 245.574929,64.6461532 247.600307,66.6650059 C249.63148,68.6867593 252.077001,69.6990863 254.942665,69.6990863 C257.808329,69.6990863 260.259645,68.680958 262.296613,66.6418007 C262.64142,66.2937226 262.968842,65.9311413 263.281775,65.5540568 L265.481006,66.3314311 C265.220228,66.7607274 264.678388,67.3843672 263.849693,68.1965494 C261.398377,70.6679036 258.431299,71.9035807 254.942665,71.9035807 C251.488801,71.9035807 248.536211,70.6708043 246.076203,68.208152 C243.613296,65.7484004 242.387638,62.7868362 242.387638,59.3321614 C242.387638,55.8426789 243.613296,52.8695121 246.076203,50.4155618 C248.536211,47.9616115 251.488801,46.7346363 254.942665,46.7346363 C258.431299,46.7346363 261.398377,47.9616115 263.849693,50.4155618 C266.008358,52.5939503 267.086241,55.1755293 267.086241,58.1660999 L244.639024,58.1660999 L244.639024,58.1660999 Z" id="Fill-6" fill="#1C8DBA" fill-rule="nonzero"></path>
            <polygon id="Fill-7" fill="#1C8DBA" fill-rule="nonzero" points="270.864629 71.253835 272.936368 71.253835 272.936368 34.6041159 270.864629 34.6041159"></polygon>
            <polyline id="Fill-8" fill="#1C8DBA" fill-rule="nonzero" points="281.092934 79.8049527 278.786494 79.8049527 284.717752 67.0826996 276.172916 48.7563897 278.479356 48.7563897 285.856484 64.4663128 293.25969 48.7563897 295.56613 48.7563897 281.092934 79.8049527"></polyline>
            <g id="Group-13">
                <g id="Fill-9-Clipped">
                    <mask id="mask-2" fill="white">
                        <use xlink:href="#path-1"></use>
                    </mask>
                    <g id="path-1"></g>
                    <path d="M94.32641,66.3778415 C84.4602975,92.3009551 55.2038694,105.20885 28.9782646,95.2103075 C2.74976234,85.2088646 -10.5122632,56.0863335 -0.649048223,30.16322 C9.21416673,4.2372058 38.4705949,-8.67068894 64.6990972,1.32785334 C90.9247019,11.3292963 104.189625,40.4518273 94.32641,66.3778415" id="Fill-9" fill="#1A86A4" fill-rule="nonzero" mask="url(#mask-2)"></path>
                </g>
                <g id="Fill-11-Clipped">
                    <mask id="mask-4" fill="white">
                        <use xlink:href="#path-3"></use>
                    </mask>
                    <g id="path-1"></g>
                    <path d="M28.0510529,79.0768894 C26.367584,79.0768894 24.6087793,78.963764 22.7688435,78.7259107 C22.7688435,78.7259107 11.088873,76.0805174 3.39011795,66.0790745 C2.89753671,64.8404967 2.45421359,63.5787138 2.06594367,62.3024276 C9.04321207,72.6490479 20.0944171,74.9695683 20.0944171,74.9695683 C21.9343529,75.2074216 23.6931577,75.3176464 25.3766265,75.3176464 C47.5978355,75.3176464 56.5019658,55.9151952 58.0782258,51.9790124 L74.318919,9.30174157 C75.4228805,10.0588114 76.4862765,10.8564902 77.5120045,11.6947782 L60.7526522,55.7382555 C59.1763922,59.6744382 50.2722619,79.0768894 28.0510529,79.0768894" id="Fill-11" fill="#197799" fill-rule="nonzero" mask="url(#mask-4)"></path>
                </g>
                <g id="Fill-12-Clipped">
                    <mask id="mask-6" fill="white">
                        <use xlink:href="#path-5"></use>
                    </mask>
                    <g id="path-1"></g>
                    <path d="M93.4223786,68.5011177 C93.5701529,68.1849468 93.7266199,67.8948817 93.8685992,67.5729095 L97.8295319,56.7563838 L120.14636,-15.8730041 C104.641641,-21.7845299 87.2853958,-13.9933826 81.380216,1.52799823 L60.7526522,55.7382555 C59.0575932,59.9732052 48.8814443,82.1051685 22.7688435,78.7259107 C22.7688435,78.7259107 -1.57915751,73.2088734 -3.13513472,48.0051212 C-3.13513472,48.0051212 -8.09571756,84.4866026 34.3271174,98.2240834 C34.3271174,98.2240834 73.643793,108.95359 92.7588427,69.8876286 L92.9587727,69.9630455 L93.4223786,68.5011177" id="Fill-12" fill="#1C8DBA" fill-rule="nonzero" mask="url(#mask-6)"></path>
                </g>
            </g>
            <path d="M30.9746674,67.1059048 C28.8565681,67.1059048 26.7036983,66.7259196 24.6087793,65.92534 C15.3714322,62.4039503 10.7353735,52.0544293 14.2529831,42.8071555 C16.97377,35.657052 23.7713912,31.2625665 30.98336,31.2625665 C33.0985618,31.2625665 35.2514316,31.6396511 37.3492482,32.4402306 C46.5865952,35.9616203 51.2226539,46.314042 47.7021468,55.5613158 C44.9842574,62.7085186 38.1866363,67.1059048 30.9746674,67.1059048" id="Fill-14" fill="#197799" fill-rule="nonzero"></path>
            <path d="M75.6662736,60.0602247 C69.6683726,75.8165582 52.0484519,83.7237315 36.3090325,77.7222856 C20.5696131,71.7208397 12.670928,54.081984 18.6659315,38.3256505 C24.6609349,22.569317 42.2808557,14.6621437 58.0202751,20.6635896 C73.7596945,26.6650355 81.6612771,44.3038912 75.6662736,60.0602247" id="Fill-15" fill="#FFFFFF" fill-rule="nonzero"></path>
            <polyline id="Fill-16" fill="#BEDCEA" fill-rule="nonzero" points="31.690359 109 21.4446692 105.092824 35.7961685 67.3785659 46.0389608 71.2857422 31.690359 109"></polyline>
            <path d="M75.6662736,60.0602247 C69.6683726,75.8165582 52.0484519,83.7237315 36.3090325,77.7222856 C20.5696131,71.7208397 12.670928,54.081984 18.6659315,38.3256505 C24.6609349,22.569317 42.2808557,14.6621437 58.0202751,20.6635896 C73.7596945,26.6650355 81.6612771,44.3038912 75.6662736,60.0602247" id="Fill-17" fill="#BEDCEA" fill-rule="nonzero"></path>
            <path d="M72.0965084,58.6998196 C66.8519669,72.4837108 51.4370717,79.4017623 37.6679772,74.1515849 C23.9017803,68.9014075 16.9911553,53.4699468 22.2356967,39.6860556 C27.4802381,25.9021644 42.8922359,18.9870136 56.6613303,24.237191 C70.4304248,29.4873684 77.3410498,44.9159284 72.0965084,58.6998196" id="Fill-18" fill="#E1E5E6" fill-rule="nonzero"></path>
        </g>
    </g>
</svg>