<?xml version="1.0" encoding="UTF-8" standalone="no"?>
<svg width="60px" height="58px" viewBox="0 0 60 58" version="1.1" xmlns="http://www.w3.org/2000/svg" xmlns:xlink="http://www.w3.org/1999/xlink" xmlns:sketch="http://www.bohemiancoding.com/sketch/ns">
    <!-- Generator: Sketch 3.2.2 (9983) - http://www.bohemiancoding.com/sketch -->
    <title>19 - Fishing Rod (Flat)</title>
    <desc>Created with Sketch.</desc>
    <defs></defs>
    <g id="Page-1" stroke="none" stroke-width="1" fill="none" fill-rule="evenodd" sketch:type="MSPage">
        <g id="19---Fishing-Rod-(Flat)" sketch:type="MSLayerGroup" transform="translate(0.000000, -1.000000)">
            <path d="M56.075,52.456 L8.85,6.645 C8.317,6.131 7.588,5.962 6.927,6.134 C6.882,6.051 6.84,5.967 6.77,5.898 L2.165,1.293 C1.775,0.902 1.142,0.902 0.751,1.293 C0.361,1.684 0.361,2.316 0.751,2.707 L5.356,7.312 C5.411,7.367 5.48,7.397 5.544,7.436 C5.319,8.126 5.478,8.91 6.022,9.474 L51.832,56.699 C53.004,57.87 54.903,57.87 56.075,56.699 C57.247,55.527 57.247,53.627 56.075,52.456" id="Fill-60" fill="#BFA380" sketch:type="MSShapeGroup"></path>
            <path d="M43.468,48.092 L47.469,44.092 L41.731,38.516 L37.892,42.354 L43.468,48.092" id="Fill-384" fill="#556080" sketch:type="MSShapeGroup"></path>
            <path d="M53.459,33.042 L52.459,33.042 C53.562,34.145 54.088,38.171 57.605,34.654 C59.108,33.151 59.587,30.953 58.084,29.45 L50.459,21.824 L45.395,16.883 C42.878,14.427 41.459,11.059 41.459,7.542 C41.459,5.056 43.473,3.042 45.959,3.042 C48.444,3.042 50.459,5.056 50.459,7.542 L50.459,8.542 C50.459,8.719 50.448,8.894 50.428,9.067 C50.102,11.877 46.998,13.472 44.384,12.39 L26.459,7.042 L12.593,2.709 C11.178,2.267 9.705,2.042 8.223,2.042 C4.487,2.042 1.459,5.07 1.459,8.806 C1.459,9.627 1.557,10.445 1.753,11.243 C2.214,13.127 3.2,14.841 4.597,16.187 L35.437,45.875" id="Stroke-385" stroke="#C7CBC7" stroke-width="2" stroke-linecap="round" sketch:type="MSShapeGroup"></path>
            <path d="M58.165,25.335 C57.775,24.944 57.142,24.944 56.751,25.335 L56.458,25.627 L56.458,23.042 C56.458,22.489 56.011,22.042 55.458,22.042 C54.906,22.042 54.458,22.489 54.458,23.042 L54.458,26.042 L51.458,26.042 C50.906,26.042 50.458,26.489 50.458,27.042 C50.458,27.594 50.906,28.042 51.458,28.042 L54.044,28.042 L53.751,28.335 C53.361,28.725 53.361,29.358 53.751,29.748 C53.947,29.944 54.203,30.042 54.458,30.042 C54.714,30.042 54.97,29.944 55.165,29.748 L58.165,26.748 C58.556,26.358 58.556,25.725 58.165,25.335" id="Fill-724" fill="#DD342E" sketch:type="MSShapeGroup"></path>
            <path d="M9.458,24.042 C9.203,24.042 8.947,23.944 8.751,23.748 C8.361,23.358 8.361,22.725 8.751,22.335 L13.653,17.433 C14.044,17.042 14.677,17.042 15.067,17.433 C15.458,17.824 15.458,18.456 15.067,18.847 L10.165,23.748 C9.97,23.944 9.714,24.042 9.458,24.042" id="Fill-725" fill="#556080" sketch:type="MSShapeGroup"></path>
            <path d="M15.271,29.854 C15.015,29.854 14.759,29.756 14.564,29.561 C14.173,29.17 14.173,28.538 14.564,28.147 L19.409,23.302 C19.8,22.912 20.433,22.912 20.823,23.302 C21.214,23.693 21.214,24.326 20.823,24.716 L15.978,29.561 C15.783,29.756 15.527,29.854 15.271,29.854" id="Fill-726" fill="#556080" sketch:type="MSShapeGroup"></path>
            <path d="M20.736,35.834 C20.48,35.834 20.224,35.736 20.029,35.541 C19.638,35.15 19.638,34.517 20.029,34.127 L24.874,29.281 C25.265,28.891 25.897,28.891 26.288,29.281 C26.679,29.672 26.679,30.305 26.288,30.695 L21.443,35.541 C21.248,35.736 20.992,35.834 20.736,35.834" id="Fill-727" fill="#556080" sketch:type="MSShapeGroup"></path>
            <path d="M41.226,46.092 C43.959,48.826 43.959,53.258 41.226,55.991 C38.492,58.725 34.06,58.725 31.326,55.991 C28.593,53.258 28.593,48.826 31.326,46.092 C34.06,43.358 38.492,43.358 41.226,46.092" id="Fill-728" fill="#6C797A" sketch:type="MSShapeGroup"></path>
            <path d="M36.276,55.04 C35.252,55.04 34.227,54.65 33.448,53.87 L34.862,52.456 C35.64,53.235 36.91,53.235 37.69,52.456 C38.47,51.676 38.47,50.407 37.69,49.627 L39.104,48.213 C40.664,49.773 40.664,52.31 39.104,53.87 C38.325,54.65 37.3,55.04 36.276,55.04" id="Fill-729" fill="#E0E2E3" sketch:type="MSShapeGroup"></path>
            <path d="M33.458,50.042 C33.342,50.042 33.223,50.021 33.107,49.978 L26.079,47.342 L25.407,49.358 C25.233,49.881 24.668,50.167 24.142,49.99 C23.618,49.815 23.335,49.249 23.51,48.725 L24.838,44.741 L33.81,48.105 C34.327,48.299 34.589,48.875 34.395,49.393 C34.244,49.794 33.863,50.042 33.458,50.042" id="Fill-730" fill="#556080" sketch:type="MSShapeGroup"></path>
        </g>
    </g>
</svg>