<?xml version="1.0" encoding="UTF-8" standalone="no"?>
<svg width="58px" height="58px" viewBox="0 0 58 58" version="1.1" xmlns="http://www.w3.org/2000/svg" xmlns:xlink="http://www.w3.org/1999/xlink" xmlns:sketch="http://www.bohemiancoding.com/sketch/ns">
    <!-- Generator: Sketch 3.2.2 (9983) - http://www.bohemiancoding.com/sketch -->
    <title>138 - Time is Money (Flat)</title>
    <desc>Created with Sketch.</desc>
    <defs></defs>
    <g id="Page-1" stroke="none" stroke-width="1" fill="none" fill-rule="evenodd" sketch:type="MSPage">
        <g id="138---Time-is-Money-(Flat)" sketch:type="MSLayerGroup">
            <path d="M58,29 C58,45.016 45.016,58 29,58 C12.984,58 0,45.016 0,29 C0,12.984 12.984,0 29,0 C45.016,0 58,12.984 58,29" id="Fill-2147" fill="#F6EFCA" sketch:type="MSShapeGroup"></path>
            <path d="M44,51.222 C44,53.431 45.791,55.222 48,55.222 C49.225,55.222 50.321,54.672 51.055,53.804 C51.986,52.703 51.753,51.03 50.615,50.145 L45.385,46.077 C44.247,45.192 44.014,43.519 44.945,42.418 C45.679,41.551 46.775,41 48,41 C50.209,41 52,42.791 52,45 M48,39 L48,57" id="Stroke-2148" stroke="#4FBA6F" stroke-width="2" stroke-linecap="round" sketch:type="MSShapeGroup"></path>
            <path d="M30,25.021 L30,14.879 C30,14.326 29.552,13.879 29,13.879 C28.448,13.879 28,14.326 28,14.879 L28,25.021 C26.601,25.385 25.506,26.48 25.142,27.879 L18,27.879 C17.448,27.879 17,28.326 17,28.879 C17,29.432 17.448,29.879 18,29.879 L25.142,29.879 C25.589,31.599 27.142,32.879 29,32.879 C31.206,32.879 33,31.085 33,28.879 C33,27.02 31.72,25.468 30,25.021 L30,25.021 Z M29,30.879 C27.897,30.879 27,29.981 27,28.879 C27,27.776 27.897,26.879 29,26.879 C30.103,26.879 31,27.776 31,28.879 C31,29.981 30.103,30.879 29,30.879 L29,30.879 Z" id="Fill-2149" fill="#F0C419" sketch:type="MSShapeGroup"></path>
            <path d="M29,6.879 L29,7.879 M29,49.879 L29,50.879 M51,28.879 L50,28.879 M8,28.879 L7,28.879 M44.556,13.322 L43.849,14.03 M14.151,43.728 L13.444,44.435 M14.151,14.03 L13.444,13.322" id="Stroke-2150" stroke="#7F6E5D" stroke-width="2" stroke-linecap="round" sketch:type="MSShapeGroup"></path>
        </g>
    </g>
</svg>