<?xml version="1.0" encoding="UTF-8" standalone="no"?>
<svg width="497px" height="206px" viewBox="0 0 497 206" version="1.1" xmlns="http://www.w3.org/2000/svg" xmlns:xlink="http://www.w3.org/1999/xlink">
    <!-- Generator: Sketch 3.6.1 (26313) - http://www.bohemiancoding.com/sketch -->
    <title>logo_with_name_1</title>
    <desc>Created with Sketch.</desc>
    <defs></defs>
    <g id="Page-1" stroke="none" stroke-width="1" fill="none" fill-rule="evenodd">
        <g id="logo_with_name_1">
            <g id="Page-1">
                <g id="logo_with_name">
                    <g id="Page-1">
                        <g id="the-logo-blue-bg">
                            <path d="M0,206 L497,206 L497,-1.42108547e-14 L0,-1.42108547e-14 L0,206 L0,206 L0,206 Z" id="Fill-1" fill="#0099CC"></path>
                            <path d="M163.855,147.64 C163.855,133.37 154.705,121.845 138.51,121.845 L124.245,121.845 L124.245,173.345 L138.51,173.345 C154.615,173.345 163.855,161.91 163.855,147.64 L163.855,147.64 L163.855,147.64 L163.855,147.64 Z M119.03,178.105 L119.03,117.09 L138.51,117.09 C157.45,117.09 169.34,130.9 169.34,147.64 C169.34,164.565 157.45,178.105 138.51,178.105 L119.03,178.105 L119.03,178.105 L119.03,178.105 L119.03,178.105 Z" id="Fill-2" fill="#FFFFFF"></path>
                            <path d="M200.82,136.94 C190.395,136.94 185.18,146.085 184.815,153.77 L216.925,153.77 C216.83,146.265 211.89,136.94 200.82,136.94 L200.82,136.94 L200.82,136.94 L200.82,136.94 Z M179.695,155.965 C179.695,143.155 188.66,132.82 200.915,132.82 C214.36,132.82 221.77,143.435 221.77,156.24 L221.77,157.52 L184.815,157.52 C185.27,167.125 191.675,175.085 202.105,175.085 C207.68,175.085 212.805,172.98 216.56,168.955 L219.025,172.07 C214.635,176.64 209.055,179.2 201.74,179.2 C188.84,179.2 179.695,169.595 179.695,155.965 L179.695,155.965 L179.695,155.965 L179.695,155.965 Z" id="Fill-3" fill="#FFFFFF"></path>
                            <path d="M266.61,167.035 L266.61,145.175 C264.045,140.87 258.285,137.12 252.06,137.12 C242.275,137.12 236.605,145.355 236.605,156.055 C236.605,166.76 242.275,174.9 252.06,174.9 C258.285,174.9 264.045,171.245 266.61,167.035 L266.61,167.035 L266.61,167.035 L266.61,167.035 Z M266.61,178.105 L266.61,171.055 C263.495,175.635 257.825,179.2 251.24,179.2 C239.535,179.2 231.575,170.235 231.575,156.055 C231.575,142.065 239.535,132.82 251.24,132.82 C257.55,132.82 263.13,136.025 266.61,141.055 L266.61,117.09 L271.455,117.09 L271.455,178.105 L266.61,178.105 L266.61,178.105 L266.61,178.105 L266.61,178.105 Z" id="Fill-4" fill="#FFFFFF"></path>
                            <path d="M316.11,178.105 L316.11,171.61 C312.54,175.635 306.6,179.2 300.19,179.2 C291.225,179.2 286.285,174.995 286.285,165.02 L286.285,133.92 L291.045,133.92 L291.045,163.925 C291.045,172.52 295.345,174.9 301.75,174.9 C307.42,174.9 313.18,171.515 316.11,167.585 L316.11,133.92 L320.865,133.92 L320.865,178.105 L316.11,178.105" id="Fill-5" fill="#FFFFFF"></path>
                            <path d="M333.23,155.965 C333.23,143.07 341.64,132.82 354.63,132.82 C362.315,132.82 366.705,135.84 370.275,140.325 L366.985,143.25 C363.78,138.86 359.755,137.12 354.91,137.12 C344.57,137.12 338.26,145.355 338.26,155.965 C338.26,166.575 344.57,174.9 354.91,174.9 C359.755,174.9 363.78,173.075 366.985,168.68 L370.275,171.61 C366.705,176.185 362.315,179.2 354.63,179.2 C341.64,179.2 333.23,168.865 333.23,155.965" id="Fill-6" fill="#FFFFFF"></path>
                            <path d="M399.555,136.94 C389.13,136.94 383.92,146.085 383.55,153.77 L415.66,153.77 C415.57,146.265 410.625,136.94 399.555,136.94 L399.555,136.94 L399.555,136.94 L399.555,136.94 Z M378.43,155.965 C378.43,143.155 387.395,132.82 399.65,132.82 C413.095,132.82 420.505,143.435 420.505,156.24 L420.505,157.52 L383.55,157.52 C384.005,167.125 390.41,175.085 400.84,175.085 C406.42,175.085 411.545,172.98 415.295,168.955 L417.76,172.07 C413.37,176.64 407.79,179.2 400.475,179.2 C387.575,179.2 378.43,169.595 378.43,155.965 L378.43,155.965 L378.43,155.965 L378.43,155.965 Z" id="Fill-7" fill="#FFFFFF"></path>
                            <path d="M432.77,178.105 L437.53,178.105 L437.53,117.09 L432.77,117.09 L432.77,178.105 L432.77,178.105 L432.77,178.105 Z" id="Fill-8" fill="#FFFFFF"></path>
                            <path d="M450.25,191.005 C451.255,191.455 452.995,191.73 454.09,191.73 C457.02,191.73 459.03,190.545 460.86,186.335 L464.34,178.47 L445.585,133.92 L450.89,133.92 L466.99,172.52 L482.905,133.92 L488.3,133.92 L465.43,187.8 C463.055,193.38 459.305,196.035 454.18,196.035 C452.63,196.035 450.615,195.76 449.425,195.395 L450.25,191.005" id="Fill-9" fill="#FFFFFF"></path>
                            <path d="M68.295,184.55 L68.295,184.55 C65.765,184.55 63.715,182.5 63.715,179.97 L63.715,122.345 L72.875,122.345 L72.875,179.97 C72.875,182.5 70.825,184.55 68.295,184.55" id="Fill-10" fill="#FFFFFF"></path>
                            <path d="M116.76,83.57 C116.355,109.855 94.72,130.835 68.435,130.43 C42.15,130.03 21.165,108.39 21.57,82.105 C21.975,55.82 43.61,34.84 69.895,35.24 C96.185,35.645 117.165,57.28 116.76,83.57" id="Fill-11" fill="#0099CC"></path>
                            <path d="M111.435,84.485 C111.075,107.83 91.86,126.465 68.515,126.105 C45.17,125.745 26.54,106.53 26.895,83.185 C27.255,59.845 46.47,41.21 69.815,41.57 C93.16,41.925 111.795,61.14 111.435,84.485" id="Fill-12" fill="#FFFFFF"></path>
                            <path d="M105.845,83.39 C105.54,103.285 89.165,119.16 69.27,118.855 C49.38,118.55 33.5,102.175 33.81,82.285 C34.115,62.39 50.485,46.515 70.38,46.82 C90.27,47.125 106.15,63.5 105.845,83.39" id="Fill-13" fill="#FFFFFF"></path>
                            <path d="M105.185,83.39 C104.88,103.285 88.505,119.16 68.61,118.855 C48.72,118.55 32.84,102.175 33.145,82.285 C33.455,62.39 49.825,46.515 69.72,46.82 C89.61,47.125 105.49,63.5 105.185,83.39" id="Fill-14" fill="#0099CC"></path>
                            <path d="M67.8,113.82 L67.315,113.82 L68.265,51.935 C85.355,52.195 98.995,66.26 98.735,83.35 C98.475,100.28 84.67,113.82 67.8,113.82" id="Fill-15" fill="#54B0CC"></path>
                            <path d="M47.42,46 L88.505,45.855" id="Stroke-16" stroke="#FFFFFF" stroke-width="3.75"></path>
                            <path d="M14.17,75.875 L30.945,52.895 L36.6,36.21 L47.58,23.605 L50.325,23.605 L63.145,13.465 L76.56,13.465 L89.055,21.195 L96.455,26.195 L102.965,36.21 L109.03,50.485 L126.675,79.355 L112.735,70.335 L88.505,56.52 L69.93,55.415 L48.275,58.505 L33.335,67.385 L14.17,75.875" id="Fill-17" fill="#1C8DBA"></path>
                            <path d="M14.17,75.875 L30.945,52.895 L36.6,36.21 L47.58,23.605 L50.325,23.605 L63.145,13.465 L76.56,13.465 L89.055,21.195 L96.455,26.195 L102.965,36.21 L109.03,50.485 L126.675,79.355 L112.735,70.335 L88.505,56.52 L69.93,55.415 L48.275,58.505 L33.335,67.385 L14.17,75.875" id="Fill-18" fill="#0099CC"></path>
                            <g id="Group-22" transform="translate(9.000000, 12.000000)">
                                <g id="mask-2" fill="#FFFFFF">
                                    <path d="M115.145,60.525 C118.04,64.69 118.185,65.84 117.415,66.725 C117.085,67.11 116.565,67.355 115.95,67.42 L115.505,67.455 C114.19,67.455 111.05,66.535 95.655,57.27 C89.345,53.47 83.225,49.615 80.59,47.94 L80.545,47.975 C79.61,47.38 78.625,46.82 77.605,46.305 C81.035,44.305 81.515,39.245 81.395,37.34 L81.39,37.285 L81.395,37.225 C81.985,22.985 78.68,12.6 71.85,7.19 C67.17,3.485 62.09,3.09 60.12,3.09 C59.63,3.09 59.35,3.115 59.345,3.115 L59.125,3.13 L58.89,3.11 C58.89,3.11 58.61,3.09 58.125,3.09 C56.16,3.09 51.075,3.485 46.4,7.19 C39.565,12.6 36.265,22.985 36.85,37.225 L36.855,37.285 L36.85,37.34 C36.74,39.245 37.235,44.305 40.64,46.305 C39.62,46.82 38.64,47.38 37.705,47.975 L37.645,47.935 C35.015,49.6 28.885,53.465 22.57,57.27 C7.18,66.535 4.04,67.455 2.725,67.455 L2.275,67.42 C1.66,67.355 1.14,67.11 0.81,66.725 C0.04,65.84 0.185,64.69 3.085,60.525 C4.64,58.28 6.925,55.295 9.875,51.655 C14.23,46.27 18.785,40.99 19.92,39.69 L19.925,39.645 C21.61,20.23 32.975,12.305 39.93,9.25 C41.085,7.755 42.385,6.435 43.835,5.29 C49.47,0.835 55.705,0.355 58.125,0.355 C58.575,0.355 58.915,0.37 59.125,0.38 C59.335,0.37 59.67,0.355 60.12,0.355 C62.54,0.355 68.785,0.835 74.41,5.29 C75.865,6.44 77.17,7.765 78.33,9.26 C85.285,12.33 96.615,20.26 98.305,39.645 L98.31,39.69 C99.44,40.99 103.995,46.27 108.355,51.655 C111.3,55.295 113.585,58.28 115.145,60.525 L115.145,60.525 L115.145,60.525 L115.145,60.525 Z M113.305,63.79 C112.205,62.005 109.825,58.625 104.68,52.3 C100.27,46.885 95.84,41.775 95.17,41.005 C91.595,40.695 87.815,40.435 84.78,40.24 C84.535,41.89 83.97,43.945 82.72,45.74 C85.165,47.295 91.045,51.005 97.21,54.73 C106.23,60.17 110.9,62.66 113.305,63.79 L113.305,63.79 L113.305,63.79 L113.305,63.79 Z M84.97,37.51 C87.77,37.69 91.225,37.925 94.58,38.205 C93.025,25.29 86.925,18.195 81.4,14.35 C84.145,20.27 85.34,27.93 84.96,37.265 L84.97,37.51 L84.97,37.51 L84.97,37.51 L84.97,37.51 Z M35.52,45.735 C34.275,43.935 33.715,41.885 33.465,40.24 C30.425,40.43 26.64,40.695 23.06,41.005 C22.39,41.775 17.96,46.885 13.55,52.3 C8.4,58.625 6.02,62.005 4.925,63.79 C7.33,62.66 12,60.17 21.025,54.725 C27.2,50.995 33.085,47.28 35.52,45.735 L35.52,45.735 L35.52,45.735 L35.52,45.735 Z M33.28,37.51 L33.29,37.265 C32.905,27.92 34.105,20.255 36.855,14.33 C31.325,18.17 25.205,25.27 23.65,38.205 C27.01,37.925 30.47,37.685 33.28,37.51 L33.28,37.51 L33.28,37.51 L33.28,37.51 Z" id="path-1"></path>
                                </g>
                                <g id="Fill-19-Clipped">
                                    <g id="mask-2" fill="#FFFFFF">
                                        <path d="M115.145,60.525 C118.04,64.69 118.185,65.84 117.415,66.725 C117.085,67.11 116.565,67.355 115.95,67.42 L115.505,67.455 C114.19,67.455 111.05,66.535 95.655,57.27 C89.345,53.47 83.225,49.615 80.59,47.94 L80.545,47.975 C79.61,47.38 78.625,46.82 77.605,46.305 C81.035,44.305 81.515,39.245 81.395,37.34 L81.39,37.285 L81.395,37.225 C81.985,22.985 78.68,12.6 71.85,7.19 C67.17,3.485 62.09,3.09 60.12,3.09 C59.63,3.09 59.35,3.115 59.345,3.115 L59.125,3.13 L58.89,3.11 C58.89,3.11 58.61,3.09 58.125,3.09 C56.16,3.09 51.075,3.485 46.4,7.19 C39.565,12.6 36.265,22.985 36.85,37.225 L36.855,37.285 L36.85,37.34 C36.74,39.245 37.235,44.305 40.64,46.305 C39.62,46.82 38.64,47.38 37.705,47.975 L37.645,47.935 C35.015,49.6 28.885,53.465 22.57,57.27 C7.18,66.535 4.04,67.455 2.725,67.455 L2.275,67.42 C1.66,67.355 1.14,67.11 0.81,66.725 C0.04,65.84 0.185,64.69 3.085,60.525 C4.64,58.28 6.925,55.295 9.875,51.655 C14.23,46.27 18.785,40.99 19.92,39.69 L19.925,39.645 C21.61,20.23 32.975,12.305 39.93,9.25 C41.085,7.755 42.385,6.435 43.835,5.29 C49.47,0.835 55.705,0.355 58.125,0.355 C58.575,0.355 58.915,0.37 59.125,0.38 C59.335,0.37 59.67,0.355 60.12,0.355 C62.54,0.355 68.785,0.835 74.41,5.29 C75.865,6.44 77.17,7.765 78.33,9.26 C85.285,12.33 96.615,20.26 98.305,39.645 L98.31,39.69 C99.44,40.99 103.995,46.27 108.355,51.655 C111.3,55.295 113.585,58.28 115.145,60.525 L115.145,60.525 L115.145,60.525 L115.145,60.525 Z M113.305,63.79 C112.205,62.005 109.825,58.625 104.68,52.3 C100.27,46.885 95.84,41.775 95.17,41.005 C91.595,40.695 87.815,40.435 84.78,40.24 C84.535,41.89 83.97,43.945 82.72,45.74 C85.165,47.295 91.045,51.005 97.21,54.73 C106.23,60.17 110.9,62.66 113.305,63.79 L113.305,63.79 L113.305,63.79 L113.305,63.79 Z M84.97,37.51 C87.77,37.69 91.225,37.925 94.58,38.205 C93.025,25.29 86.925,18.195 81.4,14.35 C84.145,20.27 85.34,27.93 84.96,37.265 L84.97,37.51 L84.97,37.51 L84.97,37.51 L84.97,37.51 Z M35.52,45.735 C34.275,43.935 33.715,41.885 33.465,40.24 C30.425,40.43 26.64,40.695 23.06,41.005 C22.39,41.775 17.96,46.885 13.55,52.3 C8.4,58.625 6.02,62.005 4.925,63.79 C7.33,62.66 12,60.17 21.025,54.725 C27.2,50.995 33.085,47.28 35.52,45.735 L35.52,45.735 L35.52,45.735 L35.52,45.735 Z M33.28,37.51 L33.29,37.265 C32.905,27.92 34.105,20.255 36.855,14.33 C31.325,18.17 25.205,25.27 23.65,38.205 C27.01,37.925 30.47,37.685 33.28,37.51 L33.28,37.51 L33.28,37.51 L33.28,37.51 Z" id="path-1"></path>
                                    </g>
                                    <g id="path-1"></g>
                                </g>
                                <g id="Stroke-21-Clipped">
                                    <g id="mask-4" fill="#FFFFFF">
                                        <path d="M115.145,60.525 C118.04,64.69 118.185,65.84 117.415,66.725 C117.085,67.11 116.565,67.355 115.95,67.42 L115.505,67.455 C114.19,67.455 111.05,66.535 95.655,57.27 C89.345,53.47 83.225,49.615 80.59,47.94 L80.545,47.975 C79.61,47.38 78.625,46.82 77.605,46.305 C81.035,44.305 81.515,39.245 81.395,37.34 L81.39,37.285 L81.395,37.225 C81.985,22.985 78.68,12.6 71.85,7.19 C67.17,3.485 62.09,3.09 60.12,3.09 C59.63,3.09 59.35,3.115 59.345,3.115 L59.125,3.13 L58.89,3.11 C58.89,3.11 58.61,3.09 58.125,3.09 C56.16,3.09 51.075,3.485 46.4,7.19 C39.565,12.6 36.265,22.985 36.85,37.225 L36.855,37.285 L36.85,37.34 C36.74,39.245 37.235,44.305 40.64,46.305 C39.62,46.82 38.64,47.38 37.705,47.975 L37.645,47.935 C35.015,49.6 28.885,53.465 22.57,57.27 C7.18,66.535 4.04,67.455 2.725,67.455 L2.275,67.42 C1.66,67.355 1.14,67.11 0.81,66.725 C0.04,65.84 0.185,64.69 3.085,60.525 C4.64,58.28 6.925,55.295 9.875,51.655 C14.23,46.27 18.785,40.99 19.92,39.69 L19.925,39.645 C21.61,20.23 32.975,12.305 39.93,9.25 C41.085,7.755 42.385,6.435 43.835,5.29 C49.47,0.835 55.705,0.355 58.125,0.355 C58.575,0.355 58.915,0.37 59.125,0.38 C59.335,0.37 59.67,0.355 60.12,0.355 C62.54,0.355 68.785,0.835 74.41,5.29 C75.865,6.44 77.17,7.765 78.33,9.26 C85.285,12.33 96.615,20.26 98.305,39.645 L98.31,39.69 C99.44,40.99 103.995,46.27 108.355,51.655 C111.3,55.295 113.585,58.28 115.145,60.525 L115.145,60.525 L115.145,60.525 L115.145,60.525 Z M113.305,63.79 C112.205,62.005 109.825,58.625 104.68,52.3 C100.27,46.885 95.84,41.775 95.17,41.005 C91.595,40.695 87.815,40.435 84.78,40.24 C84.535,41.89 83.97,43.945 82.72,45.74 C85.165,47.295 91.045,51.005 97.21,54.73 C106.23,60.17 110.9,62.66 113.305,63.79 L113.305,63.79 L113.305,63.79 L113.305,63.79 Z M84.97,37.51 C87.77,37.69 91.225,37.925 94.58,38.205 C93.025,25.29 86.925,18.195 81.4,14.35 C84.145,20.27 85.34,27.93 84.96,37.265 L84.97,37.51 L84.97,37.51 L84.97,37.51 L84.97,37.51 Z M35.52,45.735 C34.275,43.935 33.715,41.885 33.465,40.24 C30.425,40.43 26.64,40.695 23.06,41.005 C22.39,41.775 17.96,46.885 13.55,52.3 C8.4,58.625 6.02,62.005 4.925,63.79 C7.33,62.66 12,60.17 21.025,54.725 C27.2,50.995 33.085,47.28 35.52,45.735 L35.52,45.735 L35.52,45.735 L35.52,45.735 Z M33.28,37.51 L33.29,37.265 C32.905,27.92 34.105,20.255 36.855,14.33 C31.325,18.17 25.205,25.27 23.65,38.205 C27.01,37.925 30.47,37.685 33.28,37.51 L33.28,37.51 L33.28,37.51 L33.28,37.51 Z" id="path-3"></path>
                                    </g>
                                    <g id="path-1"></g>
                                </g>
                            </g>
                            <path d="M124.145,72.525 C127.04,76.69 127.185,77.84 126.415,78.725 C126.085,79.11 125.565,79.355 124.95,79.42 L124.505,79.455 C123.19,79.455 120.05,78.535 104.655,69.27 C98.345,65.47 92.225,61.615 89.59,59.94 L89.545,59.975 C88.61,59.38 87.625,58.82 86.605,58.305 C90.035,56.305 90.515,51.245 90.395,49.34 L90.39,49.285 L90.395,49.225 C90.985,34.985 87.68,24.6 80.85,19.19 C76.17,15.485 71.09,15.085 69.12,15.085 C68.63,15.085 68.35,15.115 68.345,15.115 L68.125,15.13 L67.89,15.11 C67.89,15.11 67.61,15.085 67.125,15.085 C65.16,15.085 60.075,15.485 55.4,19.19 C48.565,24.6 45.265,34.985 45.85,49.225 L45.855,49.285 L45.85,49.34 C45.74,51.245 46.235,56.305 49.64,58.305 C48.62,58.82 47.64,59.38 46.705,59.975 L46.645,59.935 C44.015,61.6 37.885,65.465 31.57,69.27 C16.18,78.535 13.04,79.455 11.725,79.455 L11.275,79.42 C10.66,79.355 10.14,79.11 9.81,78.725 C9.04,77.84 9.185,76.69 12.085,72.525 C13.64,70.28 15.925,67.295 18.875,63.655 C23.23,58.27 27.785,52.99 28.92,51.69 L28.925,51.645 C30.61,32.23 41.975,24.305 48.93,21.25 C50.085,19.755 51.385,18.435 52.835,17.29 C58.47,12.835 64.705,12.355 67.125,12.355 C67.575,12.355 67.915,12.37 68.125,12.38 C68.335,12.37 68.67,12.355 69.12,12.355 C71.54,12.355 77.785,12.835 83.41,17.29 C84.865,18.44 86.17,19.765 87.33,21.26 C94.285,24.33 105.615,32.26 107.305,51.645 L107.31,51.69 C108.44,52.99 112.995,58.27 117.355,63.655 C120.3,67.295 122.585,70.28 124.145,72.525 M122.305,75.79 C121.205,74.005 118.825,70.625 113.68,64.3 C109.27,58.885 104.84,53.775 104.17,53.005 C100.595,52.695 96.815,52.435 93.78,52.24 C93.535,53.89 92.97,55.945 91.72,57.74 C94.165,59.295 100.045,63.005 106.21,66.73 C115.23,72.17 119.9,74.66 122.305,75.79 M93.97,49.51 C96.77,49.69 100.225,49.925 103.58,50.205 C102.025,37.29 95.925,30.195 90.4,26.35 C93.145,32.27 94.34,39.93 93.96,49.265 L93.97,49.51 M44.52,57.735 C43.275,55.935 42.715,53.885 42.465,52.24 C39.425,52.43 35.64,52.695 32.06,53.005 C31.39,53.775 26.96,58.885 22.55,64.3 C17.4,70.625 15.02,74.005 13.925,75.79 C16.33,74.66 21,72.17 30.025,66.725 C36.2,62.995 42.085,59.28 44.52,57.735 M42.28,49.51 L42.29,49.265 C41.905,39.92 43.105,32.255 45.855,26.33 C40.325,30.17 34.205,37.27 32.65,50.205 C36.01,49.925 39.47,49.685 42.28,49.51" id="Stroke-23" stroke="#FFFFFF" stroke-width="0.5"></path>
                            <path d="M45.855,56.49 L90.425,56.49" id="Stroke-24" stroke="#FFFFFF" stroke-width="4"></path>
                            <path d="M72.14,11.515 C72.14,13.15 70.205,14.47 67.815,14.47 C65.43,14.47 63.495,13.15 63.495,11.515 C63.495,9.885 65.43,8.56 67.815,8.56 C70.205,8.56 72.14,9.885 72.14,11.515" id="Fill-25" fill="#FFFFFF"></path>
                        </g>
                    </g>
                </g>
            </g>
        </g>
    </g>
</svg>