<?xml version="1.0" encoding="UTF-8" standalone="no"?>
<svg
   xmlns:dc="http://purl.org/dc/elements/1.1/"
   xmlns:cc="http://creativecommons.org/ns#"
   xmlns:rdf="http://www.w3.org/1999/02/22-rdf-syntax-ns#"
   xmlns:svg="http://www.w3.org/2000/svg"
   xmlns="http://www.w3.org/2000/svg"
   xmlns:sodipodi="http://sodipodi.sourceforge.net/DTD/sodipodi-0.dtd"
   xmlns:inkscape="http://www.inkscape.org/namespaces/inkscape"
   width="328px"
   height="189px"
   viewBox="0 0 328 189"
   version="1.1"
   id="svg2"
   inkscape:version="0.48.4 r9939"
   sodipodi:docname="fits_seamleesly_1.svg">
  <metadata
     id="metadata71">
    <rdf:RDF>
      <cc:Work
         rdf:about="">
        <dc:format>image/svg+xml</dc:format>
        <dc:type
           rdf:resource="http://purl.org/dc/dcmitype/StillImage" />
      </cc:Work>
    </rdf:RDF>
  </metadata>
  <sodipodi:namedview
     pagecolor="#ffffff"
     bordercolor="#666666"
     borderopacity="1"
     objecttolerance="10"
     gridtolerance="10"
     guidetolerance="10"
     inkscape:pageopacity="0"
     inkscape:pageshadow="2"
     inkscape:window-width="1313"
     inkscape:window-height="744"
     id="namedview69"
     showgrid="false"
     inkscape:zoom="2.2335595"
     inkscape:cx="135.67945"
     inkscape:cy="81.058874"
     inkscape:window-x="53"
     inkscape:window-y="24"
     inkscape:window-maximized="1"
     inkscape:current-layer="Page-1"
     showguides="true"
     inkscape:guide-bbox="true" />
  <!-- Generator: Sketch 3.6.1 (26313) - http://www.bohemiancoding.com/sketch -->
  <title
     id="title4">Group 3</title>
  <desc
     id="desc6">Created with Sketch.</desc>
  <defs
     id="defs8">
    <path
       d="M62.0983063,37.9681389 C63.664362,40.5903047 63.7428001,41.3143121 63.3262671,41.871483 C63.147753,42.113868 62.866458,42.2681131 62.5337726,42.3090352 L62.293049,42.3310702 C61.5816973,42.3310702 59.8831084,41.7518644 51.5551541,35.9188833 C48.1417477,33.5265112 44.8311222,31.0995126 43.405714,30.0449801 L43.3813712,30.0670151 C42.8755811,29.69242 42.3427435,29.3398599 41.7909726,29.0156305 C43.6464376,27.7564873 43.9060945,24.5708549 43.8411803,23.3715209 L43.8384755,23.3368945 L43.8411803,23.2991202 C44.1603419,14.3340203 42.3724959,7.79591909 38.6777945,4.38993663 C36.1461397,2.05737378 33.3981041,1.80869299 32.3324289,1.80869299 C32.0673625,1.80869299 31.915896,1.82443228 31.9131912,1.82443228 L31.7941818,1.83387586 L31.6670581,1.82128442 C31.6670581,1.82128442 31.5155916,1.80869299 31.2532299,1.80869299 C30.1902595,1.80869299 27.4395191,2.05737378 24.9105691,4.38993663 C21.213163,7.79591909 19.4280217,14.3340203 19.7444786,23.2991202 L19.7471833,23.3368945 L19.7444786,23.3715209 C19.6849739,24.5708549 19.9527451,27.7564873 21.7946862,29.0156305 C21.2429153,29.3398599 20.7127825,29.69242 20.2069925,30.0670151 L20.1745353,30.0418322 C18.7518319,31.090069 15.4357968,33.5233633 12.0196857,35.9188833 C3.69443619,41.7518644 1.99584728,42.3310702 1.28449555,42.3310702 L1.0410672,42.3090352 C0.708381795,42.2681131 0.427086816,42.113868 0.248572694,41.871483 C-0.167960257,41.3143121 -0.0895222333,40.5903047 1.47923823,37.9681389 C2.32041841,36.5547506 3.55649346,34.6754794 5.15230152,32.3838387 C7.50814698,28.9935955 9.97218281,25.6694573 10.5861632,24.8510142 L10.588868,24.8226835 C11.5003719,12.5995505 17.64829,7.61019546 21.4106104,5.68685416 C22.0354098,4.74564459 22.7386473,3.91461006 23.5230275,3.19375055 C26.5712914,0.38900899 29.9441264,0.0868146127 31.2532299,0.0868146127 C31.4966583,0.0868146127 31.6805819,0.096258187 31.7941818,0.102553903 C31.9077817,0.096258187 32.0890006,0.0868146127 32.3324289,0.0868146127 C33.6415325,0.0868146127 37.019777,0.38900899 40.0626313,3.19375055 C40.8497163,3.91775791 41.5556585,4.75194031 42.1831627,5.69314988 C45.9454831,7.62593475 52.0744679,12.6184377 52.9886766,24.8226835 L52.9913814,24.8510142 C53.602657,25.6694573 56.0666928,28.9935955 58.425243,32.3838387 C60.0183463,34.6754794 61.2544214,36.5547506 62.0983063,37.9681389 L62.0983063,37.9681389 L62.0983063,37.9681389 Z M61.1029549,40.0236903 C60.5079078,38.8999049 59.2204423,36.7719528 56.4372449,32.7899124 C54.0516471,29.380782 51.6552302,26.1636711 51.2927925,25.6789009 C49.3588895,25.4837337 47.3140914,25.3200451 45.6723024,25.1972786 C45.5397692,26.2360718 45.2341314,27.5298415 44.5579415,28.6599225 C45.8805689,29.6389064 49.0613659,31.9746171 52.3963343,34.3197714 C57.2757203,37.744641 59.8019656,39.3122743 61.1029549,40.0236903 L61.1029549,40.0236903 L61.1029549,40.0236903 Z M45.7750832,23.4785481 C47.2897485,23.591871 49.1587373,23.7398203 50.9736308,23.9161004 C50.1324507,15.7851829 46.8326442,11.3183723 43.843885,8.89766942 C45.3287979,12.6247334 45.9752354,17.447252 45.7696737,23.3243031 L45.7750832,23.4785481 L45.7750832,23.4785481 L45.7750832,23.4785481 Z M19.0250126,28.6567747 C18.3515275,27.5235458 18.0485944,26.2329239 17.9133565,25.1972786 C16.2688627,25.3168972 14.2213599,25.4837337 12.2847521,25.6789009 C11.9223143,26.1636711 9.5258975,29.380782 7.14029969,32.7899124 C4.35439749,36.7719528 3.06693201,38.8999049 2.4745897,40.0236903 C3.77557898,39.3122743 6.30182427,37.744641 11.183915,34.3166235 C14.5242929,31.9683214 17.7077947,29.6294628 19.0250126,28.6567747 L19.0250126,28.6567747 L19.0250126,28.6567747 Z M17.8132804,23.4785481 L17.8186899,23.3243031 C17.6104234,17.4409563 18.2595657,12.6152898 19.7471833,8.88507799 C16.7557194,11.302633 13.4450939,15.7725915 12.6039137,23.9161004 C14.4215121,23.7398203 16.2932056,23.5887231 17.8132804,23.4785481 L17.8132804,23.4785481 L17.8132804,23.4785481 Z"
       id="path-1" />
    <path
       d="M62.0983063,37.9681389 C63.664362,40.5903047 63.7428001,41.3143121 63.3262671,41.871483 C63.147753,42.113868 62.866458,42.2681131 62.5337726,42.3090352 L62.293049,42.3310702 C61.5816973,42.3310702 59.8831084,41.7518644 51.5551541,35.9188833 C48.1417477,33.5265112 44.8311222,31.0995126 43.405714,30.0449801 L43.3813712,30.0670151 C42.8755811,29.69242 42.3427435,29.3398599 41.7909726,29.0156305 C43.6464376,27.7564873 43.9060945,24.5708549 43.8411803,23.3715209 L43.8384755,23.3368945 L43.8411803,23.2991202 C44.1603419,14.3340203 42.3724959,7.79591909 38.6777945,4.38993663 C36.1461397,2.05737378 33.3981041,1.80869299 32.3324289,1.80869299 C32.0673625,1.80869299 31.915896,1.82443228 31.9131912,1.82443228 L31.7941818,1.83387586 L31.6670581,1.82128442 C31.6670581,1.82128442 31.5155916,1.80869299 31.2532299,1.80869299 C30.1902595,1.80869299 27.4395191,2.05737378 24.9105691,4.38993663 C21.213163,7.79591909 19.4280217,14.3340203 19.7444786,23.2991202 L19.7471833,23.3368945 L19.7444786,23.3715209 C19.6849739,24.5708549 19.9527451,27.7564873 21.7946862,29.0156305 C21.2429153,29.3398599 20.7127825,29.69242 20.2069925,30.0670151 L20.1745353,30.0418322 C18.7518319,31.090069 15.4357968,33.5233633 12.0196857,35.9188833 C3.69443619,41.7518644 1.99584728,42.3310702 1.28449555,42.3310702 L1.0410672,42.3090352 C0.708381795,42.2681131 0.427086816,42.113868 0.248572694,41.871483 C-0.167960257,41.3143121 -0.0895222333,40.5903047 1.47923823,37.9681389 C2.32041841,36.5547506 3.55649346,34.6754794 5.15230152,32.3838387 C7.50814698,28.9935955 9.97218281,25.6694573 10.5861632,24.8510142 L10.588868,24.8226835 C11.5003719,12.5995505 17.64829,7.61019546 21.4106104,5.68685416 C22.0354098,4.74564459 22.7386473,3.91461006 23.5230275,3.19375055 C26.5712914,0.38900899 29.9441264,0.0868146127 31.2532299,0.0868146127 C31.4966583,0.0868146127 31.6805819,0.096258187 31.7941818,0.102553903 C31.9077817,0.096258187 32.0890006,0.0868146127 32.3324289,0.0868146127 C33.6415325,0.0868146127 37.019777,0.38900899 40.0626313,3.19375055 C40.8497163,3.91775791 41.5556585,4.75194031 42.1831627,5.69314988 C45.9454831,7.62593475 52.0744679,12.6184377 52.9886766,24.8226835 L52.9913814,24.8510142 C53.602657,25.6694573 56.0666928,28.9935955 58.425243,32.3838387 C60.0183463,34.6754794 61.2544214,36.5547506 62.0983063,37.9681389 L62.0983063,37.9681389 L62.0983063,37.9681389 Z M61.1029549,40.0236903 C60.5079078,38.8999049 59.2204423,36.7719528 56.4372449,32.7899124 C54.0516471,29.380782 51.6552302,26.1636711 51.2927925,25.6789009 C49.3588895,25.4837337 47.3140914,25.3200451 45.6723024,25.1972786 C45.5397692,26.2360718 45.2341314,27.5298415 44.5579415,28.6599225 C45.8805689,29.6389064 49.0613659,31.9746171 52.3963343,34.3197714 C57.2757203,37.744641 59.8019656,39.3122743 61.1029549,40.0236903 L61.1029549,40.0236903 L61.1029549,40.0236903 Z M45.7750832,23.4785481 C47.2897485,23.591871 49.1587373,23.7398203 50.9736308,23.9161004 C50.1324507,15.7851829 46.8326442,11.3183723 43.843885,8.89766942 C45.3287979,12.6247334 45.9752354,17.447252 45.7696737,23.3243031 L45.7750832,23.4785481 L45.7750832,23.4785481 L45.7750832,23.4785481 Z M19.0250126,28.6567747 C18.3515275,27.5235458 18.0485944,26.2329239 17.9133565,25.1972786 C16.2688627,25.3168972 14.2213599,25.4837337 12.2847521,25.6789009 C11.9223143,26.1636711 9.5258975,29.380782 7.14029969,32.7899124 C4.35439749,36.7719528 3.06693201,38.8999049 2.4745897,40.0236903 C3.77557898,39.3122743 6.30182427,37.744641 11.183915,34.3166235 C14.5242929,31.9683214 17.7077947,29.6294628 19.0250126,28.6567747 L19.0250126,28.6567747 L19.0250126,28.6567747 Z M17.8132804,23.4785481 L17.8186899,23.3243031 C17.6104234,17.4409563 18.2595657,12.6152898 19.7471833,8.88507799 C16.7557194,11.302633 13.4450939,15.7725915 12.6039137,23.9161004 C14.4215121,23.7398203 16.2932056,23.5887231 17.8132804,23.4785481 L17.8132804,23.4785481 L17.8132804,23.4785481 Z"
       id="path-3" />
  </defs>
  <g
     id="Page-1"
     stroke-width="1"
     stroke="none"
     fill-rule="evenodd"
     fill="none">
    <g
       id="g3918"
       transform="matrix(1.062199,0,0,1,-6.9885521,6.7157378)">
      <g
         id="g3892">
        <rect
           style="fill:none;stroke:#336e7b;stroke-width:6.02866125;stroke-linecap:round;stroke-linejoin:round;stroke-miterlimit:4;stroke-opacity:1;stroke-dasharray:none"
           id="rect3029"
           width="195.5186"
           height="137.31555"
           x="64.985413"
           y="11.323422" />
        <rect
           style="fill:none;stroke:#336e7b;stroke-width:5;stroke-linecap:round;stroke-linejoin:round;stroke-miterlimit:4;stroke-opacity:1;stroke-dasharray:none"
           id="rect3799"
           width="31.340111"
           height="16.565491"
           x="145.05994"
           y="148.70557" />
        <path
           style="fill:none;stroke:#336e7b;stroke-width:5;stroke-linecap:butt;stroke-linejoin:miter;stroke-miterlimit:4;stroke-opacity:1;stroke-dasharray:none"
           d="m 124.91272,165.27106 71.63454,0"
           id="path3805"
           inkscape:connector-curvature="0" />
        <path
           style="fill:none;stroke:#0099cc;stroke-width:4.32129908;stroke-linecap:butt;stroke-linejoin:miter;stroke-miterlimit:4;stroke-opacity:1;stroke-dasharray:none"
           d="m 129.62486,29.165443 68.03059,-6e-6"
           id="path3805-1-3"
           inkscape:connector-curvature="0"
           sodipodi:nodetypes="cc" />
      </g>
      <g
         transform="translate(-2.2385793,-1.7786704e-8)"
         id="g3910">
        <path
           sodipodi:nodetypes="cc"
           inkscape:connector-curvature="0"
           id="path3805-1"
           d="m 107.02631,58.266972 113.24989,-4e-6"
           style="fill:none;stroke:#979797;stroke-width:4.32130146;stroke-linecap:butt;stroke-linejoin:miter;stroke-miterlimit:4;stroke-opacity:1;stroke-dasharray:none" />
        <path
           sodipodi:nodetypes="cc"
           inkscape:connector-curvature="0"
           id="path3805-1-1"
           d="m 107.00409,113.33602 112.82439,0"
           style="fill:none;stroke:#979797;stroke-width:4.32130146;stroke-linecap:butt;stroke-linejoin:miter;stroke-miterlimit:4;stroke-opacity:1;stroke-dasharray:none" />
        <path
           sodipodi:nodetypes="cc"
           inkscape:connector-curvature="0"
           id="path3805-1-2"
           d="m 106.55637,95.427387 113.71983,0"
           style="fill:none;stroke:#979797;stroke-width:4.32130146;stroke-linecap:butt;stroke-linejoin:miter;stroke-miterlimit:4;stroke-opacity:1;stroke-dasharray:none" />
        <path
           sodipodi:nodetypes="cc"
           inkscape:connector-curvature="0"
           id="path3805-1-0"
           d="m 106.55637,76.623316 113.71983,0"
           style="fill:none;stroke:#979797;stroke-width:4.32130146;stroke-linecap:butt;stroke-linejoin:miter;stroke-miterlimit:4;stroke-opacity:1;stroke-dasharray:none" />
        <path
           sodipodi:type="arc"
           style="fill:none;stroke:#ec644b;stroke-width:4;stroke-linecap:round;stroke-linejoin:round;stroke-miterlimit:4;stroke-opacity:1;stroke-dasharray:none"
           id="path3902"
           sodipodi:cx="165.20715"
           sodipodi:cy="85.129921"
           sodipodi:rx="40.742142"
           sodipodi:ry="38.055847"
           d="m 205.9493,85.129921 c 0,21.017659 -18.24088,38.055849 -40.74215,38.055849 -22.50126,0 -40.74214,-17.03819 -40.74214,-38.055849 0,-21.017664 18.24088,-38.055847 40.74214,-38.055847 22.50127,0 40.74215,17.038183 40.74215,38.055847 z" />
        <path
           style="fill:none;stroke:#ec644b;stroke-width:4;stroke-linecap:butt;stroke-linejoin:miter;stroke-miterlimit:4;stroke-opacity:1;stroke-dasharray:none"
           d="m 137.89648,57.819255 54.62134,54.621335"
           id="path3904"
           inkscape:connector-curvature="0" />
      </g>
    </g>
  </g>
</svg>
